<svg xmlns="http://www.w3.org/2000/svg" viewBox="0 0 1464 24" width="1464" height="24"><g><defs><clipPath id="clip_frame0_group"><path d="M12 7c-1.326 0-2.598.527-3.536 1.464C7.527 9.402 7 10.674 7 12s.527 2.598 1.464 3.536C9.402 16.473 10.674 17 12 17s2.598-.527 3.536-1.464C16.473 14.598 17 13.326 17 12s-.527-2.598-1.464-3.536C14.598 7.527 13.326 7 12 7z" clip-path="url(#clip_frame0_group_1)"/></clipPath><clipPath id="clip_frame0_group_1"><path d="M0 0v24h24V0H0zm12 13c-.6 0-1-.4-1-1s.4-1 1-1 1 .4 1 1-.4 1-1 1z"/></clipPath></defs><path d="M20 8.7V4h-4.7L12 .7 8.7 4H4v4.7L.7 12 4 15.3V20h4.7l3.3 3.3 3.3-3.3H20v-4.7l3.3-3.3L20 8.7zm-2 5.8V18h-3.5L12 20.5 9.5 18H6v-3.5L3.5 12 6 9.5V6h3.5L12 3.5 14.5 6H18v3.5l2.5 2.5-2.5 2.5z" fill="#FFF"/><g clip-path="url(#clip_frame0_group)"><path d="M0 0v24h24V0H0zm8 17c-2.8 0-5-2.2-5-5s2.2-5 5-5 5 2.2 5 5-2.2 5-5 5z" fill="#FFF"/></g></g><g transform="translate(24)"><defs><clipPath id="clip_frame1_group"><path d="M12 7c-1.326 0-2.598.527-3.536 1.464C7.527 9.402 7 10.674 7 12s.527 2.598 1.464 3.536C9.402 16.473 10.674 17 12 17s2.598-.527 3.536-1.464C16.473 14.598 17 13.326 17 12s-.527-2.598-1.464-3.536C14.598 7.527 13.326 7 12 7z" clip-path="url(#clip_frame1_group_1)"/></clipPath><clipPath id="clip_frame1_group_1"><path d="M0 0v24h24V0H0zm12 13.005c-.603 0-1.005-.402-1.005-1.005 0-.603.402-1.005 1.005-1.005.603 0 1.005.402 1.005 1.005 0 .603-.402 1.005-1.005 1.005z"/></clipPath></defs><path d="M20.012771 8.731133l.018276-4.699965-4.699964-.018276L12.043939.700085 8.731133 3.98723l-4.699965-.018276-.018276 4.699964-3.312807 3.287144 3.287144 3.312806-.018276 4.699965 4.699964.018276 3.287144 3.312807 3.312806-3.287144 4.699965.018276.018276-4.699964 3.312807-3.287144-3.287144-3.312806zm-2.022537 5.792179l-.01361 3.499973-3.499974-.01361-2.509702 2.49026-2.49026-2.509701-3.499973-.01361.01361-3.499974-2.49026-2.509702 2.509701-2.49026.01361-3.499973 3.499974.01361 2.509702-2.49026 2.49026 2.509701 3.499973.01361-.01361 3.499974 2.49026 2.509702-2.509701 2.49026z" fill="#FFF"/><g clip-path="url(#clip_frame1_group)"><path d="M-.014853 0v24h24V0h-24zm8 17c-2.8 0-5-2.2-5-5s2.2-5 5-5 5 2.2 5 5-2.2 5-5 5z" fill="#FFF"/></g></g><g transform="translate(48)"><defs><clipPath id="clip_frame2_group"><path d="M12 7c-1.326 0-2.598.527-3.536 1.464C7.527 9.402 7 10.674 7 12s.527 2.598 1.464 3.536C9.402 16.473 10.674 17 12 17s2.598-.527 3.536-1.464C16.473 14.598 17 13.326 17 12s-.527-2.598-1.464-3.536C14.598 7.527 13.326 7 12 7z" clip-path="url(#clip_frame2_group_1)"/></clipPath><clipPath id="clip_frame2_group_1"><path d="M0 0v24h24V0H0zm12 13.021c-.612 0-1.021-.409-1.021-1.021 0-.612.409-1.021 1.021-1.021.612 0 1.021.409 1.021 1.021 0 .612-.409 1.021-1.021 1.021z"/></clipPath></defs><path d="M20.054038 8.83417l.078554-4.699343-4.699344-.078554L12.188865.701578 8.83417 3.945962l-4.699343-.078554-.078554 4.699344-3.354695 3.244383 3.244384 3.354695-.078554 4.699343 4.699344.078554 3.244383 3.354695 3.354695-3.244384 4.699343.078554.078554-4.699344 3.354695-3.244383-3.244384-3.354695zm-2.09666 5.765763l-.058498 3.499511-3.499511-.058498-2.541435 2.457867-2.457867-2.541435-3.499511-.058498.058498-3.499511-2.457867-2.541435 2.541435-2.457867.058498-3.499511 3.499511.058498 2.541435-2.457867 2.457867 2.541435 3.499511.058498-.058498 3.499511 2.457867 2.541435-2.541435 2.457867z" fill="#FFF"/><g clip-path="url(#clip_frame2_group)"><path d="M-.063845 0v24h24V0h-24zm8 17c-2.8 0-5-2.2-5-5s2.2-5 5-5 5 2.2 5 5-2.2 5-5 5z" fill="#FFF"/></g></g><g transform="translate(72)"><defs><clipPath id="clip_frame3_group"><path d="M12 7c-1.326 0-2.598.527-3.536 1.464C7.527 9.402 7 10.674 7 12s.527 2.598 1.464 3.536C9.402 16.473 10.674 17 12 17s2.598-.527 3.536-1.464C16.473 14.598 17 13.326 17 12s-.527-2.598-1.464-3.536C14.598 7.527 13.326 7 12 7z" clip-path="url(#clip_frame3_group_1)"/></clipPath><clipPath id="clip_frame3_group_1"><path d="M0 0v24h24V0H0zm12 13.052c-.628 0-1.052-.424-1.052-1.052 0-.628.424-1.052 1.052-1.052.628 0 1.052.424 1.052 1.052 0 .628-.424 1.052-1.052 1.052z"/></clipPath></defs><path d="M20.127427 9.027638l.190887-4.696122-4.696122-.190888-3.16325-3.431304-3.431304 3.16325-4.696122-.190888-.190888 4.696122-3.431304 3.16325 3.16325 3.431304-.190888 4.696122 4.696122.190888 3.16325 3.431304 3.431304-3.16325 4.696122.190888.190888-4.696122 3.431304-3.16325-3.16325-3.431304zm-2.233914 5.713985l-.14215 3.497113-3.497112-.14215-2.599473 2.3964-2.396401-2.599473-3.497113-.14215.14215-3.497112-2.3964-2.599473 2.599473-2.396401.14215-3.497113 3.497112.14215 2.599473-2.3964 2.396401 2.599473 3.497113.14215-.14215 3.497112 2.3964 2.599473-2.599473 2.396401z" fill="#FFF"/><g clip-path="url(#clip_frame3_group)"><path d="M-.155178 0v24h24V0h-24zm8 17c-2.8 0-5-2.2-5-5s2.2-5 5-5 5 2.2 5 5-2.2 5-5 5z" fill="#FFF"/></g></g><g transform="translate(96)"><defs><clipPath id="clip_frame4_group"><path d="M12 7c-1.326 0-2.598.527-3.536 1.464C7.527 9.402 7 10.674 7 12s.527 2.598 1.464 3.536C9.402 16.473 10.674 17 12 17s2.598-.527 3.536-1.464C16.473 14.598 17 13.326 17 12s-.527-2.598-1.464-3.536C14.598 7.527 13.326 7 12 7z" clip-path="url(#clip_frame4_group_1)"/></clipPath><clipPath id="clip_frame4_group_1"><path d="M0 0v24h24V0H0zm12 13.1c-.655 0-1.1-.445-1.1-1.1s.445-1.1 1.1-1.1 1.1.445 1.1 1.1-.445 1.1-1.1 1.1z"/></clipPath></defs><path d="M20.233964 9.33695l.368249-4.68555-4.685552-.36825L12.885363.734739 9.336951 3.766036l-4.685552-.368249-.368248 4.685552-3.548413 3.031298 3.031298 3.548412-.368249 4.685552 4.685552.368248 3.031298 3.548413 3.548412-3.031298 4.685552.368249.368248-4.685552 3.548413-3.031298-3.031298-3.548412zm-2.448286 5.62547l-.274227 3.48924-3.48924-.274228-2.688192 2.296438-2.296438-2.688192-3.48924-.274227.274227-3.48924-2.296438-2.688192L6.214322 9.03758l.274227-3.48924 3.48924.274227 2.688192-2.296438 2.296438 2.688192 3.48924.274227-.274227 3.48924 2.296438 2.688192-2.688192 2.296438z" fill="#FFF"/><g clip-path="url(#clip_frame4_group)"><path d="M-.299585 0v24h24V0h-24zm8 17c-2.8 0-5-2.2-5-5s2.2-5 5-5 5 2.2 5 5-2.2 5-5 5z" fill="#FFF"/></g></g><g transform="translate(120)"><defs><clipPath id="clip_frame5_group"><path d="M12 7c-1.326 0-2.598.527-3.536 1.464C7.527 9.402 7 10.674 7 12s.527 2.598 1.464 3.536C9.402 16.473 10.674 17 12 17s2.598-.527 3.536-1.464C16.473 14.598 17 13.326 17 12s-.527-2.598-1.464-3.536C14.598 7.527 13.326 7 12 7z" clip-path="url(#clip_frame5_group_1)"/></clipPath><clipPath id="clip_frame5_group_1"><path d="M0 0v24h24V0H0zm12 13.17c-.694 0-1.17-.476-1.17-1.17s.476-1.17 1.17-1.17 1.17.476 1.17 1.17-.476 1.17-1.17 1.17z"/></clipPath></defs><path d="M20.368464 9.795728l.626442-4.658065-4.658065-.626442L13.506127.800822 9.795728 3.631536l-4.658065-.626442-.626442 4.658065-3.710399 2.830714 2.830714 3.710399-.626442 4.658065 4.658065.626442 2.830714 3.710399 3.710399-2.830714 4.658065.626442.626442-4.658065 3.710399-2.830714-2.830714-3.710399zm-2.755212 5.48168l-.4665 3.468771-3.468771-.4665-2.810908 2.144481-2.14448-2.810908-3.468772-.4665.4665-3.468771-2.144481-2.810908 2.810908-2.14448.4665-3.468772 3.468771.4665 2.810908-2.144481 2.14448 2.810908 3.468772.4665-.4665 3.468771 2.144481 2.810908-2.810908 2.14448z" fill="#FFF"/><g clip-path="url(#clip_frame5_group)"><path d="M-.510633 0v24h24V0h-24zm8 17c-2.8 0-5-2.2-5-5s2.2-5 5-5 5 2.2 5 5-2.2 5-5 5z" fill="#FFF"/></g></g><g transform="translate(144)"><defs><clipPath id="clip_frame6_group"><path d="M12 7c-1.326 0-2.598.527-3.536 1.464C7.527 9.402 7 10.674 7 12s.527 2.598 1.464 3.536C9.402 16.473 10.674 17 12 17s2.598-.527 3.536-1.464C16.473 14.598 17 13.326 17 12s-.527-2.598-1.464-3.536C14.598 7.527 13.326 7 12 7z" clip-path="url(#clip_frame6_group_1)"/></clipPath><clipPath id="clip_frame6_group_1"><path d="M0 0v24h24V0H0zm12 13.268c-.747 0-1.268-.521-1.268-1.268s.521-1.268 1.268-1.268 1.268.521 1.268 1.268-.521 1.268-1.268 1.268z"/></clipPath></defs><path d="M20.512793 10.443609l.981614-4.59635-4.59635-.981615L14.360052.949201l-3.916443 2.538006-4.59635-.981614-.981615 4.59635L.949201 9.639948l2.538006 3.916443-.981614 4.59635 4.59635.981615 2.538005 3.916443 3.916443-2.538006 4.59635.981614.981615-4.59635 3.916443-2.538005-2.538006-3.916443zm-3.167247 5.254383l-.73099 3.422814-3.422814-.73099-2.967002 1.922732-1.922732-2.967002-3.422814-.73099.73099-3.422814-1.922732-2.967002 2.967002-1.922732.73099-3.422814 3.422814.73099 2.967002-1.922732 1.922732 2.967002 3.422814.73099-.73099 3.422814 1.922732 2.967002-2.967002 1.922732z" fill="#FFF"/><g clip-path="url(#clip_frame6_group)"><path d="M-.80368 0v24h24V0h-24zm8 17c-2.8 0-5-2.2-5-5s2.2-5 5-5 5 2.2 5 5-2.2 5-5 5z" fill="#FFF"/></g></g><g transform="translate(168)"><defs><clipPath id="clip_frame7_group"><path d="M12 7c-1.326 0-2.598.527-3.536 1.464C7.527 9.402 7 10.674 7 12s.527 2.598 1.464 3.536C9.402 16.473 10.674 17 12 17s2.598-.527 3.536-1.464C16.473 14.598 17 13.326 17 12s-.527-2.598-1.464-3.536C14.598 7.527 13.326 7 12 7z" clip-path="url(#clip_frame7_group_1)"/></clipPath><clipPath id="clip_frame7_group_1"><path d="M0 0v24h24V0H0zm12 13.397c-.818 0-1.397-.579-1.397-1.397 0-.818.579-1.397 1.397-1.397.818 0 1.397.579 1.397 1.397 0 .818-.579 1.397-1.397 1.397z"/></clipPath></defs><path d="M20.626573 11.312807l1.441577-4.47346-4.47346-1.441578-2.12877-4.153112-4.153113 2.12877-4.47346-1.441577-1.441578 4.47346-4.153112 2.12877 2.12877 4.153113-1.441577 4.47346 4.47346 1.441578 2.12877 4.153112 4.153113-2.12877 4.47346 1.441577 1.441578-4.47346 4.153112-2.12877-2.12877-4.153113zm-3.682568 4.907005l-1.073515 3.3313-3.3313-1.073514-3.146298 1.612704-1.612704-3.146297-3.3313-1.073515 1.073514-3.3313-1.612704-3.146298 3.146297-1.612704 1.073515-3.3313 3.3313 1.073514 3.146298-1.612704 1.612704 3.146297 3.3313 1.073515-1.073514 3.3313 1.612704 3.146298-3.146297 1.612704z" fill="#FFF"/><g clip-path="url(#clip_frame7_group)"><path d="M-1.190772 0v24h24V0h-24zm8 17c-2.8 0-5-2.2-5-5s2.2-5 5-5 5 2.2 5 5-2.2 5-5 5z" fill="#FFF"/></g></g><g transform="translate(192)"><defs><clipPath id="clip_frame8_group"><path d="M12 7c-1.326 0-2.598.527-3.536 1.464C7.527 9.402 7 10.674 7 12s.527 2.598 1.464 3.536C9.402 16.473 10.674 17 12 17s2.598-.527 3.536-1.464C16.473 14.598 17 13.326 17 12s-.527-2.598-1.464-3.536C14.598 7.527 13.326 7 12 7z" clip-path="url(#clip_frame8_group_1)"/></clipPath><clipPath id="clip_frame8_group_1"><path d="M0 0v24h24V0H0zm12 13.556c-.906 0-1.556-.65-1.556-1.556s.65-1.556 1.556-1.556 1.556.65 1.556 1.556-.65 1.556-1.556 1.556z"/></clipPath></defs><path d="M20.644933 12.393875l1.98815-4.258786-4.258785-1.98815-1.594276-4.386147-4.386147 1.594275-4.258786-1.98815-1.98815 4.258785-4.386147 1.594276 1.594275 4.386147-1.98815 4.258786 4.258785 1.98815 1.594276 4.386147 4.386147-1.594275 4.258786 1.98815 1.98815-4.258785 4.386147-1.594276-1.594275-4.386147zm-4.265712 4.409501l-1.480538 3.171437-3.171436-1.480538-3.322839 1.207784-1.207784-3.322838-3.171437-1.480538 1.480538-3.171436-1.207784-3.322839 3.322838-1.207784 1.480538-3.171437 3.171436 1.480538 3.322839-1.207784 1.207784 3.322838 3.171437 1.480538-1.480538 3.171436 1.207784 3.322839-3.322838 1.207784z" fill="#FFF"/><g clip-path="url(#clip_frame8_group)"><path d="M-1.668321 0v24h24V0h-24zm8 17c-2.8 0-5-2.2-5-5s2.2-5 5-5 5 2.2 5 5-2.2 5-5 5z" fill="#FFF"/></g></g><g transform="translate(216)"><defs><clipPath id="clip_frame9_group"><path d="M12 7c-1.326 0-2.598.527-3.536 1.464C7.527 9.402 7 10.674 7 12s.527 2.598 1.464 3.536C9.402 16.473 10.674 17 12 17s2.598-.527 3.536-1.464C16.473 14.598 17 13.326 17 12s-.527-2.598-1.464-3.536C14.598 7.527 13.326 7 12 7z" clip-path="url(#clip_frame9_group_1)"/></clipPath><clipPath id="clip_frame9_group_1"><path d="M0 0v24h24V0H0zm12 13.735c-1.004 0-1.735-.731-1.735-1.735s.731-1.735 1.735-1.735 1.735.731 1.735 1.735-.731 1.735-1.735 1.735z"/></clipPath></defs><path d="M20.505099 13.597904l2.563697-3.93922-3.93922-2.563697-.965794-4.565879-4.565878.965793L9.658684.931204l-2.563697 3.93922-4.565879.965794.965793 4.565878-2.563697 3.93922 3.93922 2.563697.965794 4.565879 4.565878-.965793 3.93922 2.563697 2.563697-3.93922 4.565879-.965794-.965793-4.565878zm-4.839976 3.77023l-1.909136 2.933463-2.933462-1.909136-3.458998.731661-.731662-3.458999-2.933462-1.909136 1.909136-2.933462-.731661-3.458998 3.458999-.731662 1.909136-2.933462 2.933462 1.909136 3.458998-.731661.731662 3.458999 2.933462 1.909136-1.909136 2.933462.731661 3.458998-3.458999.731662z" fill="#FFF"/><g clip-path="url(#clip_frame9_group)"><path d="M-2.203774 0v24h24V0h-24zm8 17c-2.8 0-5-2.2-5-5s2.2-5 5-5 5 2.2 5 5-2.2 5-5 5z" fill="#FFF"/></g></g><g transform="translate(240)"><defs><clipPath id="clip_frame10_group"><path d="M12 7c-1.326 0-2.598.527-3.536 1.464C7.527 9.402 7 10.674 7 12s.527 2.598 1.464 3.536C9.402 16.473 10.674 17 12 17s2.598-.527 3.536-1.464C16.473 14.598 17 13.326 17 12s-.527-2.598-1.464-3.536C14.598 7.527 13.326 7 12 7z" clip-path="url(#clip_frame10_group_1)"/></clipPath><clipPath id="clip_frame10_group_1"><path d="M0 0v24h24V0H0zm12 13.915c-1.103 0-1.915-.812-1.915-1.915s.812-1.915 1.915-1.915 1.915.812 1.915 1.915-.812 1.915-1.915 1.915z"/></clipPath></defs><path d="M20.195294 14.779776l3.092918-3.538907-3.538907-3.092918-.313142-4.656387-4.656387.313142L11.240869.711788 8.14795 4.250695l-4.656387.313142.313142 4.656387-3.092918 3.538907 3.538907 3.092918.313142 4.656387 4.656387-.313142 3.538907 3.092918 3.092918-3.538907 4.656387-.313142-.313142-4.656387zm-5.32271 3.051026l-2.303236 2.635357-2.635356-2.303237-3.527566.237229-.237228-3.527566-2.635357-2.303237 2.303237-2.635356-.237229-3.527566 3.527566-.237228 2.303237-2.635357 2.635356 2.303237 3.527566-.237229.237228 3.527566 2.635357 2.303237-2.303237 2.635356.237229 3.527566-3.527566.237228z" fill="#FFF"/><g clip-path="url(#clip_frame10_group)"><path d="M-2.74351 0v24h24V0h-24zm8 17c-2.8 0-5-2.2-5-5s2.2-5 5-5 5 2.2 5 5-2.2 5-5 5z" fill="#FFF"/></g></g><g transform="translate(264)"><defs><clipPath id="clip_frame11_group"><path d="M12 7c-1.326 0-2.598.527-3.536 1.464C7.527 9.402 7 10.674 7 12s.527 2.598 1.464 3.536C9.402 16.473 10.674 17 12 17s2.598-.527 3.536-1.464C16.473 14.598 17 13.326 17 12s-.527-2.598-1.464-3.536C14.598 7.527 13.326 7 12 7z" clip-path="url(#clip_frame11_group_1)"/></clipPath><clipPath id="clip_frame11_group_1"><path d="M0 0v24h24V0H0zm12 14.081c-1.195 0-2.081-.886-2.081-2.081 0-1.195.886-2.081 2.081-2.081 1.195 0 2.081.886 2.081 2.081 0 1.195-.886 2.081-2.081 2.081z"/></clipPath></defs><path d="M19.763128 15.824114l3.527744-3.105643-3.105643-3.527745.29637-4.657485-4.657485-.296369L12.71847.709128 9.190726 3.81477 4.533241 3.5184l-.296369 4.657485L.709128 11.28153l3.105643 3.527745-.29637 4.657485 4.657485.296369 3.105643 3.527744 3.527745-3.105643 4.657485.29637.296369-4.657485zM14.08819 18.15544l-2.627044 2.312713-2.312713-2.627043-3.528397-.224523.224522-3.528397-2.312713-2.627044 2.627043-2.312713.224523-3.528397 3.528397.224522 2.627044-2.312713 2.312713 2.627043 3.528397.224523-.224522 3.528397 2.312713 2.627044-2.627043 2.312713-.224523 3.528397-3.528397-.224522z" fill="#FFF"/><g clip-path="url(#clip_frame11_group)"><path d="M-3.242732 0v24h24V0h-24zm8 17c-2.8 0-5-2.2-5-5s2.2-5 5-5 5 2.2 5 5-2.2 5-5 5z" fill="#FFF"/></g></g><g transform="translate(288)"><defs><clipPath id="clip_frame12_group"><path d="M12 7c-1.326 0-2.598.527-3.536 1.464C7.527 9.402 7 10.674 7 12s.527 2.598 1.464 3.536C9.402 16.473 10.674 17 12 17s2.598-.527 3.536-1.464C16.473 14.598 17 13.326 17 12s-.527-2.598-1.464-3.536C14.598 7.527 13.326 7 12 7z" clip-path="url(#clip_frame12_group_1)"/></clipPath><clipPath id="clip_frame12_group_1"><path d="M0 0v24h24V0H0zm12 14.227c-1.275 0-2.227-.952-2.227-2.227S10.725 9.773 12 9.773s2.227.952 2.227 2.227-.952 2.227-2.227 2.227z"/></clipPath></defs><path d="M19.273576 16.688826l3.860503-2.680769-2.68077-3.860502.828324-4.592808-4.592807-.828323L14.008057.86592l-3.860502 2.68077-4.592808-.828324-.828323 4.592807L.86592 9.991943l2.68077 3.860502-.828324 4.592808 4.592807.828323 2.680769 3.860503 3.860502-2.68077 4.592808.828324.828323-4.592807zM13.3688 18.354242l-2.874842 1.996317-1.996317-2.874842-3.4794-.627518.627518-3.4794-1.996317-2.874842L6.524283 8.49764l.627518-3.4794 3.4794.627518 2.874842-1.996317 1.996317 2.874842 3.4794.627518-.627518 3.4794 1.996317 2.874842-2.874842 1.996317-.627518 3.4794-3.4794-.627518z" fill="#FFF"/><g clip-path="url(#clip_frame12_group)"><path d="M-3.681568 0v24h24V0h-24zm8 17c-2.8 0-5-2.2-5-5s2.2-5 5-5 5 2.2 5 5-2.2 5-5 5z" fill="#FFF"/></g></g><g transform="translate(312)"><defs><clipPath id="clip_frame13_group"><path d="M12 7c-1.326 0-2.598.527-3.536 1.464C7.527 9.402 7 10.674 7 12s.527 2.598 1.464 3.536C9.402 16.473 10.674 17 12 17s2.598-.527 3.536-1.464C16.473 14.598 17 13.326 17 12s-.527-2.598-1.464-3.536C14.598 7.527 13.326 7 12 7z" clip-path="url(#clip_frame13_group_1)"/></clipPath><clipPath id="clip_frame13_group_1"><path d="M0 0v24h24V0H0zm12 14.353c-1.344 0-2.353-1.009-2.353-2.353 0-1.344 1.009-2.353 2.353-2.353 1.344 0 2.353 1.009 2.353 2.353 0 1.344-1.009 2.353-2.353 2.353z"/></clipPath></defs><path d="M18.77622 17.382643l4.105842-2.287369-2.287369-4.105842 1.2768-4.488851-4.48885-1.2768-2.287369-4.105843-4.105842 2.287369-4.488851-1.2768-1.2768 4.48885-4.105843 2.287369 2.287369 4.105842-1.2768 4.488851 4.48885 1.2768 2.287369 4.105843 4.105842-2.287369 4.488851 1.2768 1.2768-4.48885zm-6.040133 1.075544l-3.057543 1.70336-1.70336-3.057543-3.400644-.967273.967273-3.400644-1.70336-3.057543 3.057543-1.70336.967273-3.400644 3.400644.967273 3.057543-1.70336 1.70336 3.057543 3.400644.967273-.967273 3.400644 1.70336 3.057543-3.057543 1.70336-.967273 3.400644-3.400644-.967273z" fill="#FFF"/><g clip-path="url(#clip_frame13_group)"><path d="M-4.058518 0v24h24V0h-24zm8 17c-2.8 0-5-2.2-5-5s2.2-5 5-5 5 2.2 5 5-2.2 5-5 5z" fill="#FFF"/></g></g><g transform="translate(336)"><defs><clipPath id="clip_frame14_group"><path d="M12 7c-1.326 0-2.598.527-3.536 1.464C7.527 9.402 7 10.674 7 12s.527 2.598 1.464 3.536C9.402 16.473 10.674 17 12 17s2.598-.527 3.536-1.464C16.473 14.598 17 13.326 17 12s-.527-2.598-1.464-3.536C14.598 7.527 13.326 7 12 7z" clip-path="url(#clip_frame14_group_1)"/></clipPath><clipPath id="clip_frame14_group_1"><path d="M0 0v24h24V0H0zm12 14.46c-1.403 0-2.46-1.057-2.46-2.46S10.597 9.54 12 9.54s2.46 1.057 2.46 2.46-1.057 2.46-2.46 2.46z"/></clipPath></defs><path d="M18.30005 17.932906l4.283496-1.934337-1.934337-4.283496 1.64941-4.365713-4.365713-1.64941-1.934337-4.283496-4.283496 1.934337-4.365713-1.64941-1.64941 4.365713L1.416454 8.00143l1.934337 4.283496-1.64941 4.365713 4.365713 1.64941 1.934337 4.283496 4.283496-1.934337 4.365713 1.64941 1.64941-4.365713zm-6.10914.56429l-3.189837 1.440463-1.440464-3.189837-3.307358-1.249553 1.249553-3.307358-1.440463-3.189838 3.189837-1.440464 1.249553-3.307358 3.307358 1.249553 3.189838-1.440463 1.440464 3.189837 3.307358 1.249553-1.249553 3.307358 1.440463 3.189838-3.189837 1.440464-1.249553 3.307358-3.307358-1.249553z" fill="#FFF"/><g clip-path="url(#clip_frame14_group)"><path d="M-4.379804 0v24h24V0h-24zm8 17c-2.8 0-5-2.2-5-5s2.2-5 5-5 5 2.2 5 5-2.2 5-5 5z" fill="#FFF"/></g></g><g transform="translate(360)"><defs><clipPath id="clip_frame15_group"><path d="M12 7c-1.326 0-2.598.527-3.536 1.464C7.527 9.402 7 10.674 7 12s.527 2.598 1.464 3.536C9.402 16.473 10.674 17 12 17s2.598-.527 3.536-1.464C16.473 14.598 17 13.326 17 12s-.527-2.598-1.464-3.536C14.598 7.527 13.326 7 12 7z" clip-path="url(#clip_frame15_group_1)"/></clipPath><clipPath id="clip_frame15_group_1"><path d="M0 0v24h24V0H0zm12 14.551c-1.453 0-2.551-1.098-2.551-2.551S10.547 9.449 12 9.449s2.551 1.098 2.551 2.551-1.098 2.551-2.551 2.551z"/></clipPath></defs><path d="M17.859355 18.368513l4.410932-1.622862-1.622862-4.410931 1.957581-4.236494-4.236493-1.957581-1.622862-4.410932-4.410931 1.622862-4.236494-1.957581-1.957581 4.236493-4.410932 1.622862 1.622862 4.410931-1.957581 4.236494 4.236493 1.957581 1.622862 4.410932 4.410931-1.622862 4.236494 1.957581 1.957581-4.236493zm-6.133857.125688L8.44076 19.702715 7.232247 16.41798l-3.209464-1.483016 1.483016-3.209465L4.297285 8.44076 7.58202 7.232247l1.483016-3.209464 3.209465 1.483016 3.284737-1.208514 1.208514 3.284736 3.209464 1.483016-1.483016 3.209465 1.208514 3.284737-3.284736 1.208514-1.483016 3.209464-3.209465-1.483016z" fill="#FFF"/><g clip-path="url(#clip_frame15_group)"><path d="M-4.653368 0v24h24V0h-24zm8 17c-2.8 0-5-2.2-5-5s2.2-5 5-5 5 2.2 5 5-2.2 5-5 5z" fill="#FFF"/></g></g><g transform="translate(384)"><defs><clipPath id="clip_frame16_group"><path d="M12 7c-1.326 0-2.598.527-3.536 1.464C7.527 9.402 7 10.674 7 12s.527 2.598 1.464 3.536C9.402 16.473 10.674 17 12 17s2.598-.527 3.536-1.464C16.473 14.598 17 13.326 17 12s-.527-2.598-1.464-3.536C14.598 7.527 13.326 7 12 7z" clip-path="url(#clip_frame16_group_1)"/></clipPath><clipPath id="clip_frame16_group_1"><path d="M0 0v24h24V0H0zm12 14.629c-1.496 0-2.629-1.133-2.629-2.629S10.504 9.371 12 9.371s2.629 1.133 2.629 2.629-1.133 2.629-2.629 2.629z"/></clipPath></defs><path d="M17.45983 18.714183l4.50174-1.350683-1.350683-4.501739 2.212443-4.109147-4.109147-2.212444L17.3635 2.03843l-4.501739 1.350683L8.752614 1.17667 6.54017 5.285817 2.03843 6.6365l1.350683 4.501739-2.212443 4.109147 4.109147 2.212444L6.6365 21.96157l4.501739-1.350683 4.109147 2.212443 2.212444-4.109147zm-6.130096-.248834l-3.35236 1.005828-1.005827-3.352359-3.11299-1.676094 1.676094-3.11299-1.005828-3.35236 3.352359-1.005827 1.676094-3.11299 3.11299 1.676094 3.35236-1.005828 1.005827 3.352359 3.11299 1.676094-1.676094 3.11299 1.005828 3.35236-3.352359 1.005827-1.676094 3.11299-3.11299-1.676094z" fill="#FFF"/><g clip-path="url(#clip_frame16_group)"><path d="M-4.886592 0v24h24V0h-24zm8 17c-2.8 0-5-2.2-5-5s2.2-5 5-5 5 2.2 5 5-2.2 5-5 5z" fill="#FFF"/></g></g><g transform="translate(408)"><defs><clipPath id="clip_frame17_group"><path d="M12 7c-1.326 0-2.598.527-3.536 1.464C7.527 9.402 7 10.674 7 12s.527 2.598 1.464 3.536C9.402 16.473 10.674 17 12 17s2.598-.527 3.536-1.464C16.473 14.598 17 13.326 17 12s-.527-2.598-1.464-3.536C14.598 7.527 13.326 7 12 7z" clip-path="url(#clip_frame17_group_1)"/></clipPath><clipPath id="clip_frame17_group_1"><path d="M0 0v24h24V0H0zm12 14.695c-1.532 0-2.695-1.163-2.695-2.695 0-1.532 1.163-2.695 2.695-2.695 1.532 0 2.695 1.163 2.695 2.695 0 1.532-1.163 2.695-2.695 2.695z"/></clipPath></defs><path d="M17.10257 18.989547l4.566002-1.114285-1.114284-4.566001 2.423545-3.988286-3.988286-2.423546-1.114285-4.566001-4.566001 1.114284-3.988286-2.423545-2.423546 3.988286-4.566001 1.114285 1.114284 4.566001-2.423545 3.988286 3.988286 2.423546 1.114285 4.566001 4.566001-1.114284 3.988286 2.423545 2.423546-3.988286zm-6.108803-.567904l-3.400214.829786-.829786-3.400214-3.02143-1.83602 1.83602-3.021428-.829786-3.400214 3.400214-.829786 1.83602-3.02143 3.021428 1.83602 3.400214-.829786.829786 3.400214 3.02143 1.83602-1.83602 3.021428.829786 3.400214-3.400214.829786-1.83602 3.02143-3.021428-1.83602z" fill="#FFF"/><g clip-path="url(#clip_frame17_group)"><path d="M-5.085708 0v24h24V0h-24zm8 17c-2.8 0-5-2.2-5-5s2.2-5 5-5 5 2.2 5 5-2.2 5-5 5z" fill="#FFF"/></g></g><g transform="translate(432)"><defs><clipPath id="clip_frame18_group"><path d="M12 7c-1.326 0-2.598.527-3.536 1.464C7.527 9.402 7 10.674 7 12s.527 2.598 1.464 3.536C9.402 16.473 10.674 17 12 17s2.598-.527 3.536-1.464C16.473 14.598 17 13.326 17 12s-.527-2.598-1.464-3.536C14.598 7.527 13.326 7 12 7z" clip-path="url(#clip_frame18_group_1)"/></clipPath><clipPath id="clip_frame18_group_1"><path d="M0 0v24h24V0H0zm12 14.752c-1.564 0-2.752-1.188-2.752-2.752 0-1.564 1.188-2.752 2.752-2.752 1.564 0 2.752 1.188 2.752 2.752 0 1.564-1.188 2.752-2.752 2.752z"/></clipPath></defs><path d="M16.786358 19.20977l4.61108-.909915-.909915-4.61108 2.59869-3.876443-3.876443-2.59869-.909915-4.61108-4.61108.909915L9.812332.913787 7.213642 4.79023l-4.61108.909915.909915 4.61108-2.59869 3.876443 3.876443 2.59869.909915 4.61108 4.61108-.909915 3.876443 2.59869 2.59869-3.876443zm-6.077466-.839288l-3.433783.677596-.677596-3.433783-2.9367-1.968704 1.968705-2.9367-.677596-3.433782 3.433783-.677596 1.968704-2.9367 2.9367 1.968705 3.433782-.677596.677596 3.433783 2.9367 1.968704-1.968705 2.9367.677596 3.433782-3.433783.677596-1.968704 2.9367-2.9367-1.968705z" fill="#FFF"/><g clip-path="url(#clip_frame18_group)"><path d="M-5.255807 0v24h24V0h-24zm8 17c-2.8 0-5-2.2-5-5s2.2-5 5-5 5 2.2 5 5-2.2 5-5 5z" fill="#FFF"/></g></g><g transform="translate(456)"><defs><clipPath id="clip_frame19_group"><path d="M12 7c-1.326 0-2.598.527-3.536 1.464C7.527 9.402 7 10.674 7 12s.527 2.598 1.464 3.536C9.402 16.473 10.674 17 12 17s2.598-.527 3.536-1.464C16.473 14.598 17 13.326 17 12s-.527-2.598-1.464-3.536C14.598 7.527 13.326 7 12 7z" clip-path="url(#clip_frame19_group_1)"/></clipPath><clipPath id="clip_frame19_group_1"><path d="M0 0v24h24V0H0zm12 14.8c-1.59 0-2.8-1.21-2.8-2.8 0-1.59 1.21-2.8 2.8-2.8 1.59 0 2.8 1.21 2.8 2.8 0 1.59-1.21 2.8-2.8 2.8z"/></clipPath></defs><path d="M16.508896 19.386464l4.64233-.734016-.734016-4.642329 2.744135-3.77488-3.77488-2.744135-.734017-4.64233-4.642329.734016L10.23524.838655l-2.744135 3.77488-4.64233.734017.734016 4.642329-2.744135 3.77488 3.77488 2.744135.734017 4.64233 4.642329-.734016 3.77488 2.744135 2.744135-3.77488zm-6.041179-1.069652l-3.457053.546607-.546608-3.457054-2.859758-2.07889 2.07889-2.859758-.546607-3.457053 3.457054-.546608 2.07889-2.859758 2.859758 2.07889 3.457053-.546607.546608 3.457054 2.859758 2.07889-2.07889 2.859758.546607 3.457053-3.457054.546608-2.07889 2.859758-2.859758-2.07889z" fill="#FFF"/><g clip-path="url(#clip_frame19_group)"><path d="M-5.401009 0v24h24V0h-24zm8 17c-2.8 0-5-2.2-5-5s2.2-5 5-5 5 2.2 5 5-2.2 5-5 5z" fill="#FFF"/></g></g><g transform="translate(480)"><defs><clipPath id="clip_frame20_group"><path d="M12 7c-1.326 0-2.598.527-3.536 1.464C7.527 9.402 7 10.674 7 12s.527 2.598 1.464 3.536C9.402 16.473 10.674 17 12 17s2.598-.527 3.536-1.464C16.473 14.598 17 13.326 17 12s-.527-2.598-1.464-3.536C14.598 7.527 13.326 7 12 7z" clip-path="url(#clip_frame20_group_1)"/></clipPath><clipPath id="clip_frame20_group_1"><path d="M0 0v24h24V0H0zm12 14.842c-1.613 0-2.842-1.229-2.842-2.842S10.387 9.158 12 9.158s2.842 1.229 2.842 2.842-1.229 2.842-2.842 2.842z"/></clipPath></defs><path d="M16.267473 19.528524l4.663654-.583384-.583384-4.663653 2.86487-3.68409-3.68409-2.86487-.583383-4.663654-4.663653.583384-3.68409-2.86487-2.86487 3.68409-4.663654.583383.583384 4.663653-2.86487 3.68409 3.68409 2.86487.583383 4.663654 4.663653-.583384 3.68409 2.86487 2.86487-3.68409zm-6.003395-1.264613l-3.472933.434434-.434435-3.472933-2.790977-2.170357 2.170356-2.790977-.434434-3.472933 3.472933-.434435 2.170357-2.790977 2.790977 2.170356 3.472933-.434434.434435 3.472933 2.790977 2.170357-2.170356 2.790977.434434 3.472933-3.472933.434435-2.170357 2.790977-2.790977-2.170356z" fill="#FFF"/><g clip-path="url(#clip_frame20_group)"><path d="M-5.524655 0v24h24V0h-24zm8 17c-2.8 0-5-2.2-5-5s2.2-5 5-5 5 2.2 5 5-2.2 5-5 5z" fill="#FFF"/></g></g><g transform="translate(504)"><defs><clipPath id="clip_frame21_group"><path d="M12 7c-1.326 0-2.598.527-3.536 1.464C7.527 9.402 7 10.674 7 12s.527 2.598 1.464 3.536C9.402 16.473 10.674 17 12 17s2.598-.527 3.536-1.464C16.473 14.598 17 13.326 17 12s-.527-2.598-1.464-3.536C14.598 7.527 13.326 7 12 7z" clip-path="url(#clip_frame21_group_1)"/></clipPath><clipPath id="clip_frame21_group_1"><path d="M0 0v24h24V0H0zm12 14.876c-1.632 0-2.876-1.244-2.876-2.876S10.368 9.124 12 9.124s2.876 1.244 2.876 2.876-1.244 2.876-2.876 2.876z"/></clipPath></defs><path d="M16.0593 19.64278l4.677904-.455203-.455203-4.677905 2.964876-3.604096L19.64278 7.9407l-.455203-4.677904-4.677905.455203L10.905576.753123 7.9407 4.35722l-4.677904.455203.455203 4.677905-2.964876 3.604096L4.35722 16.0593l.455203 4.677904 4.677905-.455203 3.604096 2.964876L16.0593 19.64278zm-5.966437-1.428858l-3.483546.338981-.33898-3.483546L3.53996 12.82324l2.246118-2.730376-.338981-3.483546 3.483546-.33898L11.17676 3.53996l2.730376 2.246118 3.483546-.338981.33898 3.483546 2.730377 2.246118-2.246118 2.730376.338981 3.483546-3.483546.33898-2.246118 2.730377-2.730376-2.246118z" fill="#FFF"/><g clip-path="url(#clip_frame21_group)"><path d="M-5.629473 0v24h24V0h-24zm8 17c-2.8 0-5-2.2-5-5s2.2-5 5-5 5 2.2 5 5-2.2 5-5 5z" fill="#FFF"/></g></g><g transform="translate(528)"><defs><clipPath id="clip_frame22_group"><path d="M12 7c-1.326 0-2.598.527-3.536 1.464C7.527 9.402 7 10.674 7 12s.527 2.598 1.464 3.536C9.402 16.473 10.674 17 12 17s2.598-.527 3.536-1.464C16.473 14.598 17 13.326 17 12s-.527-2.598-1.464-3.536C14.598 7.527 13.326 7 12 7z" clip-path="url(#clip_frame22_group_1)"/></clipPath><clipPath id="clip_frame22_group_1"><path d="M0 0v24h24V0H0zm12 14.906c-1.648 0-2.906-1.258-2.906-2.906 0-1.648 1.258-2.906 2.906-2.906 1.648 0 2.906 1.258 2.906 2.906 0 1.648-1.258 2.906-2.906 2.906z"/></clipPath></defs><path d="M15.881681 19.734504l4.68717-.34703-.347029-4.68717 3.047333-3.534652-3.534651-3.047333-.34703-4.68717-4.68717.347029L11.165651.730845 8.11832 4.265496l-4.68717.34703.347029 4.68717-3.047333 3.534652 3.534651 3.047333.34703 4.68717 4.68717-.347029 3.534652 3.047333 3.047333-3.534651zm-5.93184-1.566291l-3.490447.258426-.258426-3.490446-2.677766-2.308586L5.831787 9.94984l-.258426-3.490447 3.490446-.258426 2.308586-2.677766 2.677766 2.308585 3.490447-.258426.258426 3.490446 2.677766 2.308586-2.308585 2.677766.258426 3.490447-3.490446.258426-2.308586 2.677766-2.677766-2.308585z" fill="#FFF"/><g clip-path="url(#clip_frame22_group)"><path d="M-5.71771 0v24h24V0h-24zm8 17c-2.8 0-5-2.2-5-5s2.2-5 5-5 5 2.2 5 5-2.2 5-5 5z" fill="#FFF"/></g></g><g transform="translate(552)"><defs><clipPath id="clip_frame23_group"><path d="M12 7c-1.326 0-2.598.527-3.536 1.464C7.527 9.402 7 10.674 7 12s.527 2.598 1.464 3.536C9.402 16.473 10.674 17 12 17s2.598-.527 3.536-1.464C16.473 14.598 17 13.326 17 12s-.527-2.598-1.464-3.536C14.598 7.527 13.326 7 12 7z" clip-path="url(#clip_frame23_group_1)"/></clipPath><clipPath id="clip_frame23_group_1"><path d="M0 0v24h24V0H0zm12 14.93c-1.662 0-2.93-1.268-2.93-2.93 0-1.662 1.268-2.93 2.93-2.93 1.662 0 2.93 1.268 2.93 2.93 0 1.662-1.268 2.93-2.93 2.93z"/></clipPath></defs><path d="M15.732097 19.807782l4.692981-.256752-.256751-4.692982 3.1148-3.475345-3.475345-3.1148-.256752-4.692981-4.692982.256751-3.475345-3.1148-3.1148 3.475345-4.692981.256752.256751 4.692982-3.1148 3.475345 3.475345 3.1148.256752 4.692981 4.692982-.256751 3.475345 3.1148 3.1148-3.475345zM9.8315 18.12761l-3.494773.191198-.191199-3.494774-2.632837-2.359697L5.87239 9.831501l-.191198-3.494773 3.494774-.191199 2.359697-2.632837 2.632837 2.359697 3.494773-.191198.191199 3.494774 2.632837 2.359697-2.359697 2.632837.191198 3.494773-3.494774.191199-2.359697 2.632837-2.632837-2.359697z" fill="#FFF"/><g clip-path="url(#clip_frame23_group)"><path d="M-5.791232 0v24h24V0h-24zm8 17c-2.8 0-5-2.2-5-5s2.2-5 5-5 5 2.2 5 5-2.2 5-5 5z" fill="#FFF"/></g></g><g transform="translate(576)"><defs><clipPath id="clip_frame24_group"><path d="M12 7c-1.326 0-2.598.527-3.536 1.464C7.527 9.402 7 10.674 7 12s.527 2.598 1.464 3.536C9.402 16.473 10.674 17 12 17s2.598-.527 3.536-1.464C16.473 14.598 17 13.326 17 12s-.527-2.598-1.464-3.536C14.598 7.527 13.326 7 12 7z" clip-path="url(#clip_frame24_group_1)"/></clipPath><clipPath id="clip_frame24_group_1"><path d="M0 0v24h24V0H0zm12 14.951c-1.673 0-2.951-1.278-2.951-2.951S10.327 9.049 12 9.049s2.951 1.278 2.951 2.951-1.278 2.951-2.951 2.951z"/></clipPath></defs><path d="M15.60823 19.865792l4.696453-.182548-.182548-4.696453 3.169339-3.425682-3.425682-3.169338-.182548-4.696454-4.696453.182548L11.561109.708526 8.39177 4.134208l-4.696454.182548.182548 4.696453-3.169339 3.425682 3.425682 3.169338.182548 4.696454 4.696453-.182548 3.425682 3.169339 3.169338-3.425682zm-5.873304-1.77322l-3.49736.13594-.135939-3.497359-2.595213-2.401014 2.401014-2.595213-.13594-3.49736 3.497359-.135939 2.401014-2.595213 2.595213 2.401014 3.49736-.13594.135939 3.497359 2.595213 2.401014-2.401014 2.595213.13594 3.49736-3.497359.135939-2.401014 2.595213-2.595213-2.401014z" fill="#FFF"/><g clip-path="url(#clip_frame24_group)"><path d="M-5.851605 0v24h24V0h-24zm8 17c-2.8 0-5-2.2-5-5s2.2-5 5-5 5 2.2 5 5-2.2 5-5 5z" fill="#FFF"/></g></g><g transform="translate(600)"><defs><clipPath id="clip_frame25_group"><path d="M12 7c-1.326 0-2.598.527-3.536 1.464C7.527 9.402 7 10.674 7 12s.527 2.598 1.464 3.536C9.402 16.473 10.674 17 12 17s2.598-.527 3.536-1.464C16.473 14.598 17 13.326 17 12s-.527-2.598-1.464-3.536C14.598 7.527 13.326 7 12 7z" clip-path="url(#clip_frame25_group_1)"/></clipPath><clipPath id="clip_frame25_group_1"><path d="M0 0v24h24V0H0zm12 14.967c-1.682 0-2.967-1.285-2.967-2.967 0-1.682 1.285-2.967 2.967-2.967 1.682 0 2.967 1.285 2.967 2.967 0 1.682-1.285 2.967-2.967 2.967z"/></clipPath></defs><path d="M15.50797 19.911014l4.698395-.122845-.122845-4.698394 3.21262-3.385126-3.385126-3.21262-.122845-4.698394-4.698394.122845L11.704649.70386 8.49203 4.088986l-4.698394.122845.122845 4.698394-3.21262 3.385126 3.385126 3.21262.122845 4.698394 4.698394-.122845 3.385126 3.21262 3.21262-3.385126zm-5.850293-1.84772l-3.498804.09148-.09148-3.498805-2.56449-2.433803 2.433804-2.564489-.09148-3.498804 3.498804-.09148 2.433803-2.56449 2.564489 2.433804 3.498804-.09148.09148 3.498804 2.56449 2.433803-2.433804 2.564489.09148 3.498804-3.498804.09148-2.433803 2.56449-2.564489-2.433804z" fill="#FFF"/><g clip-path="url(#clip_frame25_group)"><path d="M-5.900152 0v24h24V0h-24zm8 17c-2.8 0-5-2.2-5-5s2.2-5 5-5 5 2.2 5 5-2.2 5-5 5z" fill="#FFF"/></g></g><g transform="translate(624)"><defs><clipPath id="clip_frame26_group"><path d="M12 7c-1.326 0-2.598.527-3.536 1.464C7.527 9.402 7 10.674 7 12s.527 2.598 1.464 3.536C9.402 16.473 10.674 17 12 17s2.598-.527 3.536-1.464C16.473 14.598 17 13.326 17 12s-.527-2.598-1.464-3.536C14.598 7.527 13.326 7 12 7z" clip-path="url(#clip_frame26_group_1)"/></clipPath><clipPath id="clip_frame26_group_1"><path d="M0 0v24h24V0H0zm12 14.979c-1.689 0-2.979-1.29-2.979-2.979S10.311 9.021 12 9.021s2.979 1.29 2.979 2.979-1.29 2.979-2.979 2.979z"/></clipPath></defs><path d="M15.42941 19.945386l4.69938-.076284-.076283-4.69938 3.246005-3.353127-3.353126-3.246004-.076284-4.699381-4.69938.076283L11.816594.701488 8.570591 4.054614l-4.699381.076284.076283 4.69938-3.246005 3.353127 3.353126 3.246004.076284 4.699381 4.69938-.076283 3.353127 3.246005 3.246004-3.353126zm-5.831698-1.9056l-3.499539.056807-.056806-3.49954L3.50112 12.13796l2.459094-2.540247-.056807-3.499539 3.49954-.056806L11.86204 3.50112l2.540247 2.459094 3.499539-.056807.056806 3.49954 2.540247 2.459094-2.459094 2.540247.056807 3.499539-3.49954.056806-2.459094 2.540247-2.540247-2.459094z" fill="#FFF"/><g clip-path="url(#clip_frame26_group)"><path d="M-5.938001 0v24h24V0h-24zm8 17c-2.8 0-5-2.2-5-5s2.2-5 5-5 5 2.2 5 5-2.2 5-5 5z" fill="#FFF"/></g></g><g transform="translate(648)"><defs><clipPath id="clip_frame27_group"><path d="M12 7c-1.326 0-2.598.527-3.536 1.464C7.527 9.402 7 10.674 7 12s.527 2.598 1.464 3.536C9.402 16.473 10.674 17 12 17s2.598-.527 3.536-1.464C16.473 14.598 17 13.326 17 12s-.527-2.598-1.464-3.536C14.598 7.527 13.326 7 12 7z" clip-path="url(#clip_frame27_group_1)"/></clipPath><clipPath id="clip_frame27_group_1"><path d="M0 0v24h24V0H0zm12 14.989c-1.694 0-2.989-1.295-2.989-2.989S10.306 9.011 12 9.011s2.989 1.295 2.989 2.989-1.295 2.989-2.989 2.989z"/></clipPath></defs><path d="M15.37082 19.970419l4.699815-.041683-.041683-4.699815 3.270604-3.329137-3.329137-3.270604-.041683-4.699815-4.699815.041683L11.899784.700444 8.62918 4.029581l-4.699815.041683.041683 4.699815-3.270604 3.329137 3.329137 3.270604.041683 4.699815 4.699815-.041683 3.329137 3.270604 3.270604-3.329137zm-5.81751-1.948483l-3.499862.03104-.03104-3.499862-2.522074-2.47773 2.47773-2.522073-.03104-3.499863 3.499862-.03104 2.47773-2.522074 2.522073 2.47773 3.499863-.03104.03104 3.499862 2.522074 2.47773-2.47773 2.522073.03104 3.499863-3.499862.03104-2.47773 2.522074-2.522073-2.47773z" fill="#FFF"/><g clip-path="url(#clip_frame27_group)"><path d="M-5.966124 0v24h24V0h-24zm8 17c-2.8 0-5-2.2-5-5s2.2-5 5-5 5 2.2 5 5-2.2 5-5 5z" fill="#FFF"/></g></g><g transform="translate(672)"><defs><clipPath id="clip_frame28_group"><path d="M12 7c-1.326 0-2.598.527-3.536 1.464C7.527 9.402 7 10.674 7 12s.527 2.598 1.464 3.536C9.402 16.473 10.674 17 12 17s2.598-.527 3.536-1.464C16.473 14.598 17 13.326 17 12s-.527-2.598-1.464-3.536C14.598 7.527 13.326 7 12 7z" clip-path="url(#clip_frame28_group_1)"/></clipPath><clipPath id="clip_frame28_group_1"><path d="M0 0v24h24V0H0zm12 14.995c-1.697 0-2.995-1.298-2.995-2.995S10.303 9.005 12 9.005s2.995 1.298 2.995 2.995-1.298 2.995-2.995 2.995z"/></clipPath></defs><path d="M15.330641 19.987292l4.699966-.018016-.018016-4.699966 3.287326-3.312625-3.312625-3.287326-.018016-4.699966-4.699966.018016L11.956685.700083 8.669359 4.012708l-4.699966.018016.018016 4.699966-3.287326 3.312625 3.312625 3.287326.018016 4.699966 4.699966-.018016 3.312625 3.287326 3.287326-3.312625zm-5.807623-1.977753l-3.499975.013416-.013416-3.499974-2.509565-2.490399 2.4904-2.509564-.013417-3.499975 3.499974-.013416 2.490399-2.509565 2.509564 2.4904 3.499975-.013417.013416 3.499974 2.509565 2.490399-2.4904 2.509564.013417 3.499975-3.499974.013416-2.490399 2.509565-2.509564-2.4904z" fill="#FFF"/><g clip-path="url(#clip_frame28_group)"><path d="M-5.985358 0v24h24V0h-24zm8 17c-2.8 0-5-2.2-5-5s2.2-5 5-5 5 2.2 5 5-2.2 5-5 5z" fill="#FFF"/></g></g><g transform="translate(696)"><defs><clipPath id="clip_frame29_group"><path d="M12 7c-1.326 0-2.598.527-3.536 1.464C7.527 9.402 7 10.674 7 12s.527 2.598 1.464 3.536C9.402 16.473 10.674 17 12 17s2.598-.527 3.536-1.464C16.473 14.598 17 13.326 17 12s-.527-2.598-1.464-3.536C14.598 7.527 13.326 7 12 7z" clip-path="url(#clip_frame29_group_1)"/></clipPath><clipPath id="clip_frame29_group_1"><path d="M0 0v24h24V0H0zm12 14.999c-1.699 0-2.999-1.3-2.999-2.999s1.3-2.999 2.999-2.999 2.999 1.3 2.999 2.999-1.3 2.999-2.999 2.999z"/></clipPath></defs><path d="M15.307462 19.996918l4.699998-.004385-.004385-4.699998 3.29692-3.303077-3.303077-3.29692-.004385-4.699998-4.699998.004385-3.303077-3.29692-3.29692 3.303077-4.699998.004385.004385 4.699998-3.29692 3.303077 3.303077 3.29692.004385 4.699998 4.699998-.004385 3.303077 3.29692 3.29692-3.303077zM9.505598 18.00233l-3.499998.003265-.003265-3.499999-2.502331-2.497666L5.99767 9.505598 5.994405 6.0056l3.499999-.003265 2.497666-2.502331 2.502332 2.497666 3.499998-.003265.003265 3.499999 2.502331 2.497666-2.497666 2.502332.003265 3.499998-3.499999.003265-2.497666 2.502331-2.502332-2.497666z" fill="#FFF"/><g clip-path="url(#clip_frame29_group)"><path d="M-5.996437 0v24h24V0h-24zm8 17c-2.8 0-5-2.2-5-5s2.2-5 5-5 5 2.2 5 5-2.2 5-5 5z" fill="#FFF"/></g></g><g transform="translate(720)"><defs><clipPath id="clip_frame30_group"><path d="M12 7c-1.326 0-2.598.527-3.536 1.464C7.527 9.402 7 10.674 7 12s.527 2.598 1.464 3.536C9.402 16.473 10.674 17 12 17s2.598-.527 3.536-1.464C16.473 14.598 17 13.326 17 12s-.527-2.598-1.464-3.536C14.598 7.527 13.326 7 12 7z" clip-path="url(#clip_frame30_group_1)"/></clipPath><clipPath id="clip_frame30_group_1"><path d="M0 0v24h24V0H0zm12 15c-1.7 0-3-1.3-3-3s1.3-3 3-3 3 1.3 3 3-1.3 3-3 3z"/></clipPath></defs><path d="M20 8.7V4h-4.7L12 .7 8.7 4H4v4.7L.7 12 4 15.3V20h4.7l3.3 3.3 3.3-3.3H20v-4.7l3.3-3.3L20 8.7zm-2 5.8V18h-3.5L12 20.5 9.5 18H6v-3.5L3.5 12 6 9.5V6h3.5L12 3.5 14.5 6H18v3.5l2.5 2.5-2.5 2.5z" fill="#FFF"/><g clip-path="url(#clip_frame30_group)"><path d="M-6 0v24h24V0H-6zm8 17c-2.8 0-5-2.2-5-5s2.2-5 5-5 5 2.2 5 5-2.2 5-5 5z" fill="#FFF"/></g></g><g transform="translate(744)"><defs><clipPath id="clip_frame31_group"><path d="M12 7c-1.326 0-2.598.527-3.536 1.464C7.527 9.402 7 10.674 7 12s.527 2.598 1.464 3.536C9.402 16.473 10.674 17 12 17s2.598-.527 3.536-1.464C16.473 14.598 17 13.326 17 12s-.527-2.598-1.464-3.536C14.598 7.527 13.326 7 12 7z" clip-path="url(#clip_frame31_group_1)"/></clipPath><clipPath id="clip_frame31_group_1"><path d="M0 0v24h24V0H0zm11.99 15.005c-1.703 0-3.005-1.302-3.005-3.005 0-1.703 1.302-3.005 3.005-3.005 1.703 0 3.005 1.302 3.005 3.005 0 1.703-1.302 3.005-3.005 3.005z"/></clipPath></defs><path d="M20.012771 8.731133l.018276-4.699965-4.699964-.018276L12.043939.700085 8.731133 3.98723l-4.699965-.018276-.018276 4.699964-3.312807 3.287144 3.287144 3.312806-.018276 4.699965 4.699964.018276 3.287144 3.312807 3.312806-3.287144 4.699965.018276.018276-4.699964 3.312807-3.287144-3.287144-3.312806zm-2.022537 5.792179l-.01361 3.499973-3.499974-.01361-2.509702 2.49026-2.49026-2.509701-3.499973-.01361.01361-3.499974-2.49026-2.509702 2.509701-2.49026.01361-3.499973 3.499974.01361 2.509702-2.49026 2.49026 2.509701 3.499973.01361-.01361 3.499974 2.49026 2.509702-2.509701 2.49026z" fill="#FFF"/><g clip-path="url(#clip_frame31_group)"><path d="M-6 0v24h24V0H-6zm8 17c-2.8 0-5-2.2-5-5s2.2-5 5-5 5 2.2 5 5-2.2 5-5 5z" fill="#FFF"/></g></g><g transform="translate(768)"><defs><clipPath id="clip_frame32_group"><path d="M12 7c-1.326 0-2.598.527-3.536 1.464C7.527 9.402 7 10.674 7 12s.527 2.598 1.464 3.536C9.402 16.473 10.674 17 12 17s2.598-.527 3.536-1.464C16.473 14.598 17 13.326 17 12s-.527-2.598-1.464-3.536C14.598 7.527 13.326 7 12 7z" clip-path="url(#clip_frame32_group_1)"/></clipPath><clipPath id="clip_frame32_group_1"><path d="M0 0v24h24V0H0zm11.957 15.021c-1.711 0-3.021-1.309-3.021-3.021s1.31-3.021 3.021-3.021c1.712 0 3.022 1.309 3.022 3.021s-1.31 3.021-3.022 3.021z"/></clipPath></defs><path d="M20.054038 8.83417l.078554-4.699343-4.699344-.078554L12.188865.701578 8.83417 3.945962l-4.699343-.078554-.078554 4.699344-3.354695 3.244383 3.244384 3.354695-.078554 4.699343 4.699344.078554 3.244383 3.354695 3.354695-3.244384 4.699343.078554.078554-4.699344 3.354695-3.244383-3.244384-3.354695zm-2.09666 5.765763l-.058498 3.499511-3.499511-.058498-2.541435 2.457867-2.457867-2.541435-3.499511-.058498.058498-3.499511-2.457867-2.541435 2.541435-2.457867.058498-3.499511 3.499511.058498 2.541435-2.457867 2.457867 2.541435 3.499511.058498-.058498 3.499511 2.457867 2.541435-2.541435 2.457867z" fill="#FFF"/><g clip-path="url(#clip_frame32_group)"><path d="M-6 0v24h24V0H-6zm8 17c-2.8 0-5-2.2-5-5s2.2-5 5-5 5 2.2 5 5-2.2 5-5 5z" fill="#FFF"/></g></g><g transform="translate(792)"><defs><clipPath id="clip_frame33_group"><path d="M12 7c-1.326 0-2.598.527-3.536 1.464C7.527 9.402 7 10.674 7 12s.527 2.598 1.464 3.536C9.402 16.473 10.674 17 12 17s2.598-.527 3.536-1.464C16.473 14.598 17 13.326 17 12s-.527-2.598-1.464-3.536C14.598 7.527 13.326 7 12 7z" clip-path="url(#clip_frame33_group_1)"/></clipPath><clipPath id="clip_frame33_group_1"><path d="M0 0v24h24V0H0zm11.897 15.052c-1.729 0-3.052-1.324-3.052-3.052s1.323-3.052 3.052-3.052c1.728 0 3.051 1.324 3.051 3.052s-1.323 3.052-3.051 3.052z"/></clipPath></defs><path d="M20.127427 9.027638l.190887-4.696122-4.696122-.190888-3.16325-3.431304-3.431304 3.16325-4.696122-.190888-.190888 4.696122-3.431304 3.16325 3.16325 3.431304-.190888 4.696122 4.696122.190888 3.16325 3.431304 3.431304-3.16325 4.696122.190888.190888-4.696122 3.431304-3.16325-3.16325-3.431304zm-2.233914 5.713985l-.14215 3.497113-3.497112-.14215-2.599473 2.3964-2.396401-2.599473-3.497113-.14215.14215-3.497112-2.3964-2.599473 2.599473-2.396401.14215-3.497113 3.497112.14215 2.599473-2.3964 2.396401 2.599473 3.497113.14215-.14215 3.497112 2.3964 2.599473-2.599473 2.396401z" fill="#FFF"/><g clip-path="url(#clip_frame33_group)"><path d="M-6 0v24h24V0H-6zm8 17c-2.8 0-5-2.2-5-5s2.2-5 5-5 5 2.2 5 5-2.2 5-5 5z" fill="#FFF"/></g></g><g transform="translate(816)"><defs><clipPath id="clip_frame34_group"><path d="M12 7c-1.326 0-2.598.527-3.536 1.464C7.527 9.402 7 10.674 7 12s.527 2.598 1.464 3.536C9.402 16.473 10.674 17 12 17s2.598-.527 3.536-1.464C16.473 14.598 17 13.326 17 12s-.527-2.598-1.464-3.536C14.598 7.527 13.326 7 12 7z" clip-path="url(#clip_frame34_group_1)"/></clipPath><clipPath id="clip_frame34_group_1"><path d="M0 0v24h24V0H0zm11.8 15.1c-1.755 0-3.1-1.345-3.1-3.1 0-1.755 1.345-3.1 3.1-3.1 1.755 0 3.1 1.345 3.1 3.1 0 1.755-1.345 3.1-3.1 3.1z"/></clipPath></defs><path d="M20.233964 9.33695l.368249-4.68555-4.685552-.36825L12.885363.734739 9.336951 3.766036l-4.685552-.368249-.368248 4.685552-3.548413 3.031298 3.031298 3.548412-.368249 4.685552 4.685552.368248 3.031298 3.548413 3.548412-3.031298 4.685552.368249.368248-4.685552 3.548413-3.031298-3.031298-3.548412zm-2.448286 5.62547l-.274227 3.48924-3.48924-.274228-2.688192 2.296438-2.296438-2.688192-3.48924-.274227.274227-3.48924-2.296438-2.688192L6.214322 9.03758l.274227-3.48924 3.48924.274227 2.688192-2.296438 2.296438 2.688192 3.48924.274227-.274227 3.48924 2.296438 2.688192-2.688192 2.296438z" fill="#FFF"/><g clip-path="url(#clip_frame34_group)"><path d="M-6 0v24h24V0H-6zm8 17c-2.8 0-5-2.2-5-5s2.2-5 5-5 5 2.2 5 5-2.2 5-5 5z" fill="#FFF"/></g></g><g transform="translate(840)"><defs><clipPath id="clip_frame35_group"><path d="M12 7c-1.326 0-2.598.527-3.536 1.464C7.527 9.402 7 10.674 7 12s.527 2.598 1.464 3.536C9.402 16.473 10.674 17 12 17s2.598-.527 3.536-1.464C16.473 14.598 17 13.326 17 12s-.527-2.598-1.464-3.536C14.598 7.527 13.326 7 12 7z" clip-path="url(#clip_frame35_group_1)"/></clipPath><clipPath id="clip_frame35_group_1"><path d="M0 0v24h24V0H0zm11.66 15.17c-1.794 0-3.171-1.376-3.171-3.17s1.377-3.17 3.171-3.17c1.793 0 3.17 1.376 3.17 3.17s-1.377 3.17-3.17 3.17z"/></clipPath></defs><path d="M20.368464 9.795728l.626442-4.658065-4.658065-.626442L13.506127.800822 9.795728 3.631536l-4.658065-.626442-.626442 4.658065-3.710399 2.830714 2.830714 3.710399-.626442 4.658065 4.658065.626442 2.830714 3.710399 3.710399-2.830714 4.658065.626442.626442-4.658065 3.710399-2.830714-2.830714-3.710399zm-2.755212 5.48168l-.4665 3.468771-3.468771-.4665-2.810908 2.144481-2.14448-2.810908-3.468772-.4665.4665-3.468771-2.144481-2.810908 2.810908-2.14448.4665-3.468772 3.468771.4665 2.810908-2.144481 2.14448 2.810908 3.468772.4665-.4665 3.468771 2.144481 2.810908-2.810908 2.14448z" fill="#FFF"/><g clip-path="url(#clip_frame35_group)"><path d="M-6 0v24h24V0H-6zm8 17c-2.8 0-5-2.2-5-5s2.2-5 5-5 5 2.2 5 5-2.2 5-5 5z" fill="#FFF"/></g></g><g transform="translate(864)"><defs><clipPath id="clip_frame36_group"><path d="M12 7c-1.326 0-2.598.527-3.536 1.464C7.527 9.402 7 10.674 7 12s.527 2.598 1.464 3.536C9.402 16.473 10.674 17 12 17s2.598-.527 3.536-1.464C16.473 14.598 17 13.326 17 12s-.527-2.598-1.464-3.536C14.598 7.527 13.326 7 12 7z" clip-path="url(#clip_frame36_group_1)"/></clipPath><clipPath id="clip_frame36_group_1"><path d="M0 0v24h24V0H0zm11.464 15.268c-1.847 0-3.268-1.421-3.268-3.268 0-1.847 1.421-3.268 3.268-3.268 1.848 0 3.268 1.421 3.268 3.268 0 1.847-1.42 3.268-3.268 3.268z"/></clipPath></defs><path d="M20.512793 10.443609l.981614-4.59635-4.59635-.981615L14.360052.949201l-3.916443 2.538006-4.59635-.981614-.981615 4.59635L.949201 9.639948l2.538006 3.916443-.981614 4.59635 4.59635.981615 2.538005 3.916443 3.916443-2.538006 4.59635.981614.981615-4.59635 3.916443-2.538005-2.538006-3.916443zm-3.167247 5.254383l-.73099 3.422814-3.422814-.73099-2.967002 1.922732-1.922732-2.967002-3.422814-.73099.73099-3.422814-1.922732-2.967002 2.967002-1.922732.73099-3.422814 3.422814.73099 2.967002-1.922732 1.922732 2.967002 3.422814.73099-.73099 3.422814 1.922732 2.967002-2.967002 1.922732z" fill="#FFF"/><g clip-path="url(#clip_frame36_group)"><path d="M-6 0v24h24V0H-6zm8 17c-2.8 0-5-2.2-5-5s2.2-5 5-5 5 2.2 5 5-2.2 5-5 5z" fill="#FFF"/></g></g><g transform="translate(888)"><defs><clipPath id="clip_frame37_group"><path d="M12 7c-1.326 0-2.598.527-3.536 1.464C7.527 9.402 7 10.674 7 12s.527 2.598 1.464 3.536C9.402 16.473 10.674 17 12 17s2.598-.527 3.536-1.464C16.473 14.598 17 13.326 17 12s-.527-2.598-1.464-3.536C14.598 7.527 13.326 7 12 7z" clip-path="url(#clip_frame37_group_1)"/></clipPath><clipPath id="clip_frame37_group_1"><path d="M0 0v24h24V0H0zm11.206 15.397c-1.918 0-3.397-1.479-3.397-3.397 0-1.918 1.479-3.397 3.397-3.397 1.918 0 3.397 1.479 3.397 3.397 0 1.918-1.479 3.397-3.397 3.397z"/></clipPath></defs><path d="M20.626573 11.312807l1.441577-4.47346-4.47346-1.441578-2.12877-4.153112-4.153113 2.12877-4.47346-1.441577-1.441578 4.47346-4.153112 2.12877 2.12877 4.153113-1.441577 4.47346 4.47346 1.441578 2.12877 4.153112 4.153113-2.12877 4.47346 1.441577 1.441578-4.47346 4.153112-2.12877-2.12877-4.153113zm-3.682568 4.907005l-1.073515 3.3313-3.3313-1.073514-3.146298 1.612704-1.612704-3.146297-3.3313-1.073515 1.073514-3.3313-1.612704-3.146298 3.146297-1.612704 1.073515-3.3313 3.3313 1.073514 3.146298-1.612704 1.612704 3.146297 3.3313 1.073515-1.073514 3.3313 1.612704 3.146298-3.146297 1.612704z" fill="#FFF"/><g clip-path="url(#clip_frame37_group)"><path d="M-6 0v24h24V0H-6zm8 17c-2.8 0-5-2.2-5-5s2.2-5 5-5 5 2.2 5 5-2.2 5-5 5z" fill="#FFF"/></g></g><g transform="translate(912)"><defs><clipPath id="clip_frame38_group"><path d="M12 7c-1.326 0-2.598.527-3.536 1.464C7.527 9.402 7 10.674 7 12s.527 2.598 1.464 3.536C9.402 16.473 10.674 17 12 17s2.598-.527 3.536-1.464C16.473 14.598 17 13.326 17 12s-.527-2.598-1.464-3.536C14.598 7.527 13.326 7 12 7z" clip-path="url(#clip_frame38_group_1)"/></clipPath><clipPath id="clip_frame38_group_1"><path d="M0 0v24h24V0H0zm10.888 15.556c-2.006 0-3.556-1.55-3.556-3.556 0-2.006 1.55-3.556 3.556-3.556 2.006 0 3.556 1.55 3.556 3.556 0 2.006-1.55 3.556-3.556 3.556z"/></clipPath></defs><path d="M20.644933 12.393875l1.98815-4.258786-4.258785-1.98815-1.594276-4.386147-4.386147 1.594275-4.258786-1.98815-1.98815 4.258785-4.386147 1.594276 1.594275 4.386147-1.98815 4.258786 4.258785 1.98815 1.594276 4.386147 4.386147-1.594275 4.258786 1.98815 1.98815-4.258785 4.386147-1.594276-1.594275-4.386147zm-4.265712 4.409501l-1.480538 3.171437-3.171436-1.480538-3.322839 1.207784-1.207784-3.322838-3.171437-1.480538 1.480538-3.171436-1.207784-3.322839 3.322838-1.207784 1.480538-3.171437 3.171436 1.480538 3.322839-1.207784 1.207784 3.322838 3.171437 1.480538-1.480538 3.171436 1.207784 3.322839-3.322838 1.207784z" fill="#FFF"/><g clip-path="url(#clip_frame38_group)"><path d="M-6 0v24h24V0H-6zm8 17c-2.8 0-5-2.2-5-5s2.2-5 5-5 5 2.2 5 5-2.2 5-5 5z" fill="#FFF"/></g></g><g transform="translate(936)"><defs><clipPath id="clip_frame39_group"><path d="M12 7c-1.326 0-2.598.527-3.536 1.464C7.527 9.402 7 10.674 7 12s.527 2.598 1.464 3.536C9.402 16.473 10.674 17 12 17s2.598-.527 3.536-1.464C16.473 14.598 17 13.326 17 12s-.527-2.598-1.464-3.536C14.598 7.527 13.326 7 12 7z" clip-path="url(#clip_frame39_group_1)"/></clipPath><clipPath id="clip_frame39_group_1"><path d="M0 0v24h24V0H0zm10.531 15.735c-2.104 0-3.735-1.631-3.735-3.735s1.631-3.735 3.735-3.735S14.265 9.896 14.265 12s-1.63 3.735-3.734 3.735z"/></clipPath></defs><path d="M20.505099 13.597904l2.563697-3.93922-3.93922-2.563697-.965794-4.565879-4.565878.965793L9.658684.931204l-2.563697 3.93922-4.565879.965794.965793 4.565878-2.563697 3.93922 3.93922 2.563697.965794 4.565879 4.565878-.965793 3.93922 2.563697 2.563697-3.93922 4.565879-.965794-.965793-4.565878zm-4.839976 3.77023l-1.909136 2.933463-2.933462-1.909136-3.458998.731661-.731662-3.458999-2.933462-1.909136 1.909136-2.933462-.731661-3.458998 3.458999-.731662 1.909136-2.933462 2.933462 1.909136 3.458998-.731661.731662 3.458999 2.933462 1.909136-1.909136 2.933462.731661 3.458998-3.458999.731662z" fill="#FFF"/><g clip-path="url(#clip_frame39_group)"><path d="M-6 0v24h24V0H-6zm8 17c-2.8 0-5-2.2-5-5s2.2-5 5-5 5 2.2 5 5-2.2 5-5 5z" fill="#FFF"/></g></g><g transform="translate(960)"><defs><clipPath id="clip_frame40_group"><path d="M12 7c-1.326 0-2.598.527-3.536 1.464C7.527 9.402 7 10.674 7 12s.527 2.598 1.464 3.536C9.402 16.473 10.674 17 12 17s2.598-.527 3.536-1.464C16.473 14.598 17 13.326 17 12s-.527-2.598-1.464-3.536C14.598 7.527 13.326 7 12 7z" clip-path="url(#clip_frame40_group_1)"/></clipPath><clipPath id="clip_frame40_group_1"><path d="M0 0v24h24V0H0zm10.171 15.915c-2.203 0-3.915-1.712-3.915-3.915 0-2.203 1.712-3.915 3.915-3.915 2.203 0 3.914 1.712 3.914 3.915 0 2.203-1.711 3.915-3.914 3.915z"/></clipPath></defs><path d="M20.195294 14.779776l3.092918-3.538907-3.538907-3.092918-.313142-4.656387-4.656387.313142L11.240869.711788 8.14795 4.250695l-4.656387.313142.313142 4.656387-3.092918 3.538907 3.538907 3.092918.313142 4.656387 4.656387-.313142 3.538907 3.092918 3.092918-3.538907 4.656387-.313142-.313142-4.656387zm-5.32271 3.051026l-2.303236 2.635357-2.635356-2.303237-3.527566.237229-.237228-3.527566-2.635357-2.303237 2.303237-2.635356-.237229-3.527566 3.527566-.237228 2.303237-2.635357 2.635356 2.303237 3.527566-.237229.237228 3.527566 2.635357 2.303237-2.303237 2.635356.237229 3.527566-3.527566.237228z" fill="#FFF"/><g clip-path="url(#clip_frame40_group)"><path d="M-6 0v24h24V0H-6zm8 17c-2.8 0-5-2.2-5-5s2.2-5 5-5 5 2.2 5 5-2.2 5-5 5z" fill="#FFF"/></g></g><g transform="translate(984)"><defs><clipPath id="clip_frame41_group"><path d="M12 7c-1.326 0-2.598.527-3.536 1.464C7.527 9.402 7 10.674 7 12s.527 2.598 1.464 3.536C9.402 16.473 10.674 17 12 17s2.598-.527 3.536-1.464C16.473 14.598 17 13.326 17 12s-.527-2.598-1.464-3.536C14.598 7.527 13.326 7 12 7z" clip-path="url(#clip_frame41_group_1)"/></clipPath><clipPath id="clip_frame41_group_1"><path d="M0 0v24h24V0H0zm9.838 16.081c-2.294 0-4.081-1.786-4.081-4.081 0-2.295 1.787-4.081 4.081-4.081 2.295 0 4.081 1.786 4.081 4.081 0 2.295-1.786 4.081-4.081 4.081z"/></clipPath></defs><path d="M19.763128 15.824114l3.527744-3.105643-3.105643-3.527745.29637-4.657485-4.657485-.296369L12.71847.709128 9.190726 3.81477 4.533241 3.5184l-.296369 4.657485L.709128 11.28153l3.105643 3.527745-.29637 4.657485 4.657485.296369 3.105643 3.527744 3.527745-3.105643 4.657485.29637.296369-4.657485zM14.08819 18.15544l-2.627044 2.312713-2.312713-2.627043-3.528397-.224523.224522-3.528397-2.312713-2.627044 2.627043-2.312713.224523-3.528397 3.528397.224522 2.627044-2.312713 2.312713 2.627043 3.528397.224523-.224522 3.528397 2.312713 2.627044-2.627043 2.312713-.224523 3.528397-3.528397-.224522z" fill="#FFF"/><g clip-path="url(#clip_frame41_group)"><path d="M-6 0v24h24V0H-6zm8 17c-2.8 0-5-2.2-5-5s2.2-5 5-5 5 2.2 5 5-2.2 5-5 5z" fill="#FFF"/></g></g><g transform="translate(1008)"><defs><clipPath id="clip_frame42_group"><path d="M12 7c-1.326 0-2.598.527-3.536 1.464C7.527 9.402 7 10.674 7 12s.527 2.598 1.464 3.536C9.402 16.473 10.674 17 12 17s2.598-.527 3.536-1.464C16.473 14.598 17 13.326 17 12s-.527-2.598-1.464-3.536C14.598 7.527 13.326 7 12 7z" clip-path="url(#clip_frame42_group_1)"/></clipPath><clipPath id="clip_frame42_group_1"><path d="M0 0v24h24V0H0zm9.546 16.227c-2.375 0-4.228-1.852-4.228-4.227s1.853-4.227 4.228-4.227S13.773 9.625 13.773 12s-1.852 4.227-4.227 4.227z"/></clipPath></defs><path d="M19.273576 16.688826l3.860503-2.680769-2.68077-3.860502.828324-4.592808-4.592807-.828323L14.008057.86592l-3.860502 2.68077-4.592808-.828324-.828323 4.592807L.86592 9.991943l2.68077 3.860502-.828324 4.592808 4.592807.828323 2.680769 3.860503 3.860502-2.68077 4.592808.828324.828323-4.592807zM13.3688 18.354242l-2.874842 1.996317-1.996317-2.874842-3.4794-.627518.627518-3.4794-1.996317-2.874842L6.524283 8.49764l.627518-3.4794 3.4794.627518 2.874842-1.996317 1.996317 2.874842 3.4794.627518-.627518 3.4794 1.996317 2.874842-2.874842 1.996317-.627518 3.4794-3.4794-.627518z" fill="#FFF"/><g clip-path="url(#clip_frame42_group)"><path d="M-6 0v24h24V0H-6zm8 17c-2.8 0-5-2.2-5-5s2.2-5 5-5 5 2.2 5 5-2.2 5-5 5z" fill="#FFF"/></g></g><g transform="translate(1032)"><defs><clipPath id="clip_frame43_group"><path d="M12 7c-1.326 0-2.598.527-3.536 1.464C7.527 9.402 7 10.674 7 12s.527 2.598 1.464 3.536C9.402 16.473 10.674 17 12 17s2.598-.527 3.536-1.464C16.473 14.598 17 13.326 17 12s-.527-2.598-1.464-3.536C14.598 7.527 13.326 7 12 7z" clip-path="url(#clip_frame43_group_1)"/></clipPath><clipPath id="clip_frame43_group_1"><path d="M0 0v24h24V0H0zm9.294 16.353c-2.444 0-4.353-1.909-4.353-4.353S6.85 7.647 9.294 7.647 13.647 9.556 13.647 12s-1.909 4.353-4.353 4.353z"/></clipPath></defs><path d="M18.77622 17.382643l4.105842-2.287369-2.287369-4.105842 1.2768-4.488851-4.48885-1.2768-2.287369-4.105843-4.105842 2.287369-4.488851-1.2768-1.2768 4.48885-4.105843 2.287369 2.287369 4.105842-1.2768 4.488851 4.48885 1.2768 2.287369 4.105843 4.105842-2.287369 4.488851 1.2768 1.2768-4.48885zm-6.040133 1.075544l-3.057543 1.70336-1.70336-3.057543-3.400644-.967273.967273-3.400644-1.70336-3.057543 3.057543-1.70336.967273-3.400644 3.400644.967273 3.057543-1.70336 1.70336 3.057543 3.400644.967273-.967273 3.400644 1.70336 3.057543-3.057543 1.70336-.967273 3.400644-3.400644-.967273z" fill="#FFF"/><g clip-path="url(#clip_frame43_group)"><path d="M-6 0v24h24V0H-6zm8 17c-2.8 0-5-2.2-5-5s2.2-5 5-5 5 2.2 5 5-2.2 5-5 5z" fill="#FFF"/></g></g><g transform="translate(1056)"><defs><clipPath id="clip_frame44_group"><path d="M12 7c-1.326 0-2.598.527-3.536 1.464C7.527 9.402 7 10.674 7 12s.527 2.598 1.464 3.536C9.402 16.473 10.674 17 12 17s2.598-.527 3.536-1.464C16.473 14.598 17 13.326 17 12s-.527-2.598-1.464-3.536C14.598 7.527 13.326 7 12 7z" clip-path="url(#clip_frame44_group_1)"/></clipPath><clipPath id="clip_frame44_group_1"><path d="M0 0v24h24V0H0zm9.08 16.46c-2.503 0-4.46-1.957-4.46-4.46s1.957-4.46 4.46-4.46 4.46 1.957 4.46 4.46-1.957 4.46-4.46 4.46z"/></clipPath></defs><path d="M18.30005 17.932906l4.283496-1.934337-1.934337-4.283496 1.64941-4.365713-4.365713-1.64941-1.934337-4.283496-4.283496 1.934337-4.365713-1.64941-1.64941 4.365713L1.416454 8.00143l1.934337 4.283496-1.64941 4.365713 4.365713 1.64941 1.934337 4.283496 4.283496-1.934337 4.365713 1.64941 1.64941-4.365713zm-6.10914.56429l-3.189837 1.440463-1.440464-3.189837-3.307358-1.249553 1.249553-3.307358-1.440463-3.189838 3.189837-1.440464 1.249553-3.307358 3.307358 1.249553 3.189838-1.440463 1.440464 3.189837 3.307358 1.249553-1.249553 3.307358 1.440463 3.189838-3.189837 1.440464-1.249553 3.307358-3.307358-1.249553z" fill="#FFF"/><g clip-path="url(#clip_frame44_group)"><path d="M-6 0v24h24V0H-6zm8 17c-2.8 0-5-2.2-5-5s2.2-5 5-5 5 2.2 5 5-2.2 5-5 5z" fill="#FFF"/></g></g><g transform="translate(1080)"><defs><clipPath id="clip_frame45_group"><path d="M12 7c-1.326 0-2.598.527-3.536 1.464C7.527 9.402 7 10.674 7 12s.527 2.598 1.464 3.536C9.402 16.473 10.674 17 12 17s2.598-.527 3.536-1.464C16.473 14.598 17 13.326 17 12s-.527-2.598-1.464-3.536C14.598 7.527 13.326 7 12 7z" clip-path="url(#clip_frame45_group_1)"/></clipPath><clipPath id="clip_frame45_group_1"><path d="M0 0v24h24V0H0zm8.898 16.551c-2.553 0-4.551-1.998-4.551-4.551s1.998-4.551 4.551-4.551S13.449 9.447 13.449 12s-1.998 4.551-4.551 4.551z"/></clipPath></defs><path d="M17.859355 18.368513l4.410932-1.622862-1.622862-4.410931 1.957581-4.236494-4.236493-1.957581-1.622862-4.410932-4.410931 1.622862-4.236494-1.957581-1.957581 4.236493-4.410932 1.622862 1.622862 4.410931-1.957581 4.236494 4.236493 1.957581 1.622862 4.410932 4.410931-1.622862 4.236494 1.957581 1.957581-4.236493zm-6.133857.125688L8.44076 19.702715 7.232247 16.41798l-3.209464-1.483016 1.483016-3.209465L4.297285 8.44076 7.58202 7.232247l1.483016-3.209464 3.209465 1.483016 3.284737-1.208514 1.208514 3.284736 3.209464 1.483016-1.483016 3.209465 1.208514 3.284737-3.284736 1.208514-1.483016 3.209464-3.209465-1.483016z" fill="#FFF"/><g clip-path="url(#clip_frame45_group)"><path d="M-6 0v24h24V0H-6zm8 17c-2.8 0-5-2.2-5-5s2.2-5 5-5 5 2.2 5 5-2.2 5-5 5z" fill="#FFF"/></g></g><g transform="translate(1104)"><defs><clipPath id="clip_frame46_group"><path d="M12 7c-1.326 0-2.598.527-3.536 1.464C7.527 9.402 7 10.674 7 12s.527 2.598 1.464 3.536C9.402 16.473 10.674 17 12 17s2.598-.527 3.536-1.464C16.473 14.598 17 13.326 17 12s-.527-2.598-1.464-3.536C14.598 7.527 13.326 7 12 7z" clip-path="url(#clip_frame46_group_1)"/></clipPath><clipPath id="clip_frame46_group_1"><path d="M0 0v24h24V0H0zm8.742 16.629c-2.596 0-4.629-2.033-4.629-4.629 0-2.596 2.033-4.629 4.629-4.629 2.596 0 4.629 2.033 4.629 4.629 0 2.596-2.033 4.629-4.629 4.629z"/></clipPath></defs><path d="M17.45983 18.714183l4.50174-1.350683-1.350683-4.501739 2.212443-4.109147-4.109147-2.212444L17.3635 2.03843l-4.501739 1.350683L8.752614 1.17667 6.54017 5.285817 2.03843 6.6365l1.350683 4.501739-2.212443 4.109147 4.109147 2.212444L6.6365 21.96157l4.501739-1.350683 4.109147 2.212443 2.212444-4.109147zm-6.130096-.248834l-3.35236 1.005828-1.005827-3.352359-3.11299-1.676094 1.676094-3.11299-1.005828-3.35236 3.352359-1.005827 1.676094-3.11299 3.11299 1.676094 3.35236-1.005828 1.005827 3.352359 3.11299 1.676094-1.676094 3.11299 1.005828 3.35236-3.352359 1.005827-1.676094 3.11299-3.11299-1.676094z" fill="#FFF"/><g clip-path="url(#clip_frame46_group)"><path d="M-6 0v24h24V0H-6zm8 17c-2.8 0-5-2.2-5-5s2.2-5 5-5 5 2.2 5 5-2.2 5-5 5z" fill="#FFF"/></g></g><g transform="translate(1128)"><defs><clipPath id="clip_frame47_group"><path d="M12 7c-1.326 0-2.598.527-3.536 1.464C7.527 9.402 7 10.674 7 12s.527 2.598 1.464 3.536C9.402 16.473 10.674 17 12 17s2.598-.527 3.536-1.464C16.473 14.598 17 13.326 17 12s-.527-2.598-1.464-3.536C14.598 7.527 13.326 7 12 7z" clip-path="url(#clip_frame47_group_1)"/></clipPath><clipPath id="clip_frame47_group_1"><path d="M0 0v24h24V0H0zm8.61 16.695c-2.633 0-4.696-2.063-4.696-4.695S5.977 7.305 8.61 7.305c2.632 0 4.695 2.063 4.695 4.695s-2.063 4.695-4.695 4.695z"/></clipPath></defs><path d="M17.10257 18.989547l4.566002-1.114285-1.114284-4.566001 2.423545-3.988286-3.988286-2.423546-1.114285-4.566001-4.566001 1.114284-3.988286-2.423545-2.423546 3.988286-4.566001 1.114285 1.114284 4.566001-2.423545 3.988286 3.988286 2.423546 1.114285 4.566001 4.566001-1.114284 3.988286 2.423545 2.423546-3.988286zm-6.108803-.567904l-3.400214.829786-.829786-3.400214-3.02143-1.83602 1.83602-3.021428-.829786-3.400214 3.400214-.829786 1.83602-3.02143 3.021428 1.83602 3.400214-.829786.829786 3.400214 3.02143 1.83602-1.83602 3.021428.829786 3.400214-3.400214.829786-1.83602 3.02143-3.021428-1.83602z" fill="#FFF"/><g clip-path="url(#clip_frame47_group)"><path d="M-6 0v24h24V0H-6zm8 17c-2.8 0-5-2.2-5-5s2.2-5 5-5 5 2.2 5 5-2.2 5-5 5z" fill="#FFF"/></g></g><g transform="translate(1152)"><defs><clipPath id="clip_frame48_group"><path d="M12 7c-1.326 0-2.598.527-3.536 1.464C7.527 9.402 7 10.674 7 12s.527 2.598 1.464 3.536C9.402 16.473 10.674 17 12 17s2.598-.527 3.536-1.464C16.473 14.598 17 13.326 17 12s-.527-2.598-1.464-3.536C14.598 7.527 13.326 7 12 7z" clip-path="url(#clip_frame48_group_1)"/></clipPath><clipPath id="clip_frame48_group_1"><path d="M0 0v24h24V0H0zm8.496 16.752c-2.663 0-4.752-2.088-4.752-4.752 0-2.664 2.089-4.752 4.752-4.752 2.664 0 4.752 2.088 4.752 4.752 0 2.664-2.088 4.752-4.752 4.752z"/></clipPath></defs><path d="M16.786358 19.20977l4.61108-.909915-.909915-4.61108 2.59869-3.876443-3.876443-2.59869-.909915-4.61108-4.61108.909915L9.812332.913787 7.213642 4.79023l-4.61108.909915.909915 4.61108-2.59869 3.876443 3.876443 2.59869.909915 4.61108 4.61108-.909915 3.876443 2.59869 2.59869-3.876443zm-6.077466-.839288l-3.433783.677596-.677596-3.433783-2.9367-1.968704 1.968705-2.9367-.677596-3.433782 3.433783-.677596 1.968704-2.9367 2.9367 1.968705 3.433782-.677596.677596 3.433783 2.9367 1.968704-1.968705 2.9367.677596 3.433782-3.433783.677596-1.968704 2.9367-2.9367-1.968705z" fill="#FFF"/><g clip-path="url(#clip_frame48_group)"><path d="M-6 0v24h24V0H-6zm8 17c-2.8 0-5-2.2-5-5s2.2-5 5-5 5 2.2 5 5-2.2 5-5 5z" fill="#FFF"/></g></g><g transform="translate(1176)"><defs><clipPath id="clip_frame49_group"><path d="M12 7c-1.326 0-2.598.527-3.536 1.464C7.527 9.402 7 10.674 7 12s.527 2.598 1.464 3.536C9.402 16.473 10.674 17 12 17s2.598-.527 3.536-1.464C16.473 14.598 17 13.326 17 12s-.527-2.598-1.464-3.536C14.598 7.527 13.326 7 12 7z" clip-path="url(#clip_frame49_group_1)"/></clipPath><clipPath id="clip_frame49_group_1"><path d="M0 0v24h24V0H0zm8.399 16.8c-2.69 0-4.8-2.11-4.8-4.8s2.11-4.8 4.8-4.8C11.09 7.2 13.2 9.31 13.2 12s-2.11 4.8-4.801 4.8z"/></clipPath></defs><path d="M16.508896 19.386464l4.64233-.734016-.734016-4.642329 2.744135-3.77488-3.77488-2.744135-.734017-4.64233-4.642329.734016L10.23524.838655l-2.744135 3.77488-4.64233.734017.734016 4.642329-2.744135 3.77488 3.77488 2.744135.734017 4.64233 4.642329-.734016 3.77488 2.744135 2.744135-3.77488zm-6.041179-1.069652l-3.457053.546607-.546608-3.457054-2.859758-2.07889 2.07889-2.859758-.546607-3.457053 3.457054-.546608 2.07889-2.859758 2.859758 2.07889 3.457053-.546607.546608 3.457054 2.859758 2.07889-2.07889 2.859758.546607 3.457053-3.457054.546608-2.07889 2.859758-2.859758-2.07889z" fill="#FFF"/><g clip-path="url(#clip_frame49_group)"><path d="M-6 0v24h24V0H-6zm8 17c-2.8 0-5-2.2-5-5s2.2-5 5-5 5 2.2 5 5-2.2 5-5 5z" fill="#FFF"/></g></g><g transform="translate(1200)"><defs><clipPath id="clip_frame50_group"><path d="M12 7c-1.326 0-2.598.527-3.536 1.464C7.527 9.402 7 10.674 7 12s.527 2.598 1.464 3.536C9.402 16.473 10.674 17 12 17s2.598-.527 3.536-1.464C16.473 14.598 17 13.326 17 12s-.527-2.598-1.464-3.536C14.598 7.527 13.326 7 12 7z" clip-path="url(#clip_frame50_group_1)"/></clipPath><clipPath id="clip_frame50_group_1"><path d="M0 0v24h24V0H0zm8.317 16.842c-2.713 0-4.842-2.129-4.842-4.842 0-2.713 2.129-4.842 4.842-4.842 2.713 0 4.841 2.129 4.841 4.842 0 2.713-2.128 4.842-4.841 4.842z"/></clipPath></defs><path d="M16.267473 19.528524l4.663654-.583384-.583384-4.663653 2.86487-3.68409-3.68409-2.86487-.583383-4.663654-4.663653.583384-3.68409-2.86487-2.86487 3.68409-4.663654.583383.583384 4.663653-2.86487 3.68409 3.68409 2.86487.583383 4.663654 4.663653-.583384 3.68409 2.86487 2.86487-3.68409zm-6.003395-1.264613l-3.472933.434434-.434435-3.472933-2.790977-2.170357 2.170356-2.790977-.434434-3.472933 3.472933-.434435 2.170357-2.790977 2.790977 2.170356 3.472933-.434434.434435 3.472933 2.790977 2.170357-2.170356 2.790977.434434 3.472933-3.472933.434435-2.170357 2.790977-2.790977-2.170356z" fill="#FFF"/><g clip-path="url(#clip_frame50_group)"><path d="M-6 0v24h24V0H-6zm8 17c-2.8 0-5-2.2-5-5s2.2-5 5-5 5 2.2 5 5-2.2 5-5 5z" fill="#FFF"/></g></g><g transform="translate(1224)"><defs><clipPath id="clip_frame51_group"><path d="M12 7c-1.326 0-2.598.527-3.536 1.464C7.527 9.402 7 10.674 7 12s.527 2.598 1.464 3.536C9.402 16.473 10.674 17 12 17s2.598-.527 3.536-1.464C16.473 14.598 17 13.326 17 12s-.527-2.598-1.464-3.536C14.598 7.527 13.326 7 12 7z" clip-path="url(#clip_frame51_group_1)"/></clipPath><clipPath id="clip_frame51_group_1"><path d="M0 0v24h24V0H0zm8.247 16.876c-2.732 0-4.876-2.144-4.876-4.876s2.144-4.876 4.876-4.876S13.124 9.268 13.124 12s-2.145 4.876-4.877 4.876z"/></clipPath></defs><path d="M16.0593 19.64278l4.677904-.455203-.455203-4.677905 2.964876-3.604096L19.64278 7.9407l-.455203-4.677904-4.677905.455203L10.905576.753123 7.9407 4.35722l-4.677904.455203.455203 4.677905-2.964876 3.604096L4.35722 16.0593l.455203 4.677904 4.677905-.455203 3.604096 2.964876L16.0593 19.64278zm-5.966437-1.428858l-3.483546.338981-.33898-3.483546L3.53996 12.82324l2.246118-2.730376-.338981-3.483546 3.483546-.33898L11.17676 3.53996l2.730376 2.246118 3.483546-.338981.33898 3.483546 2.730377 2.246118-2.246118 2.730376.338981 3.483546-3.483546.33898-2.246118 2.730377-2.730376-2.246118z" fill="#FFF"/><g clip-path="url(#clip_frame51_group)"><path d="M-6 0v24h24V0H-6zm8 17c-2.8 0-5-2.2-5-5s2.2-5 5-5 5 2.2 5 5-2.2 5-5 5z" fill="#FFF"/></g></g><g transform="translate(1248)"><defs><clipPath id="clip_frame52_group"><path d="M12 7c-1.326 0-2.598.527-3.536 1.464C7.527 9.402 7 10.674 7 12s.527 2.598 1.464 3.536C9.402 16.473 10.674 17 12 17s2.598-.527 3.536-1.464C16.473 14.598 17 13.326 17 12s-.527-2.598-1.464-3.536C14.598 7.527 13.326 7 12 7z" clip-path="url(#clip_frame52_group_1)"/></clipPath><clipPath id="clip_frame52_group_1"><path d="M0 0v24h24V0H0zm8.188 16.906c-2.748 0-4.906-2.158-4.906-4.906 0-2.748 2.158-4.906 4.906-4.906 2.748 0 4.906 2.158 4.906 4.906 0 2.748-2.158 4.906-4.906 4.906z"/></clipPath></defs><path d="M15.881681 19.734504l4.68717-.34703-.347029-4.68717 3.047333-3.534652-3.534651-3.047333-.34703-4.68717-4.68717.347029L11.165651.730845 8.11832 4.265496l-4.68717.34703.347029 4.68717-3.047333 3.534652 3.534651 3.047333.34703 4.68717 4.68717-.347029 3.534652 3.047333 3.047333-3.534651zm-5.93184-1.566291l-3.490447.258426-.258426-3.490446-2.677766-2.308586L5.831787 9.94984l-.258426-3.490447 3.490446-.258426 2.308586-2.677766 2.677766 2.308585 3.490447-.258426.258426 3.490446 2.677766 2.308586-2.308585 2.677766.258426 3.490447-3.490446.258426-2.308586 2.677766-2.677766-2.308585z" fill="#FFF"/><g clip-path="url(#clip_frame52_group)"><path d="M-6 0v24h24V0H-6zm8 17c-2.8 0-5-2.2-5-5s2.2-5 5-5 5 2.2 5 5-2.2 5-5 5z" fill="#FFF"/></g></g><g transform="translate(1272)"><defs><clipPath id="clip_frame53_group"><path d="M12 7c-1.326 0-2.598.527-3.536 1.464C7.527 9.402 7 10.674 7 12s.527 2.598 1.464 3.536C9.402 16.473 10.674 17 12 17s2.598-.527 3.536-1.464C16.473 14.598 17 13.326 17 12s-.527-2.598-1.464-3.536C14.598 7.527 13.326 7 12 7z" clip-path="url(#clip_frame53_group_1)"/></clipPath><clipPath id="clip_frame53_group_1"><path d="M0 0v24h24V0H0zm8.139 16.93c-2.762 0-4.93-2.168-4.93-4.93 0-2.762 2.168-4.93 4.93-4.93 2.762 0 4.931 2.168 4.931 4.93 0 2.762-2.169 4.93-4.931 4.93z"/></clipPath></defs><path d="M15.732097 19.807782l4.692981-.256752-.256751-4.692982 3.1148-3.475345-3.475345-3.1148-.256752-4.692981-4.692982.256751-3.475345-3.1148-3.1148 3.475345-4.692981.256752.256751 4.692982-3.1148 3.475345 3.475345 3.1148.256752 4.692981 4.692982-.256751 3.475345 3.1148 3.1148-3.475345zM9.8315 18.12761l-3.494773.191198-.191199-3.494774-2.632837-2.359697L5.87239 9.831501l-.191198-3.494773 3.494774-.191199 2.359697-2.632837 2.632837 2.359697 3.494773-.191198.191199 3.494774 2.632837 2.359697-2.359697 2.632837.191198 3.494773-3.494774.191199-2.359697 2.632837-2.632837-2.359697z" fill="#FFF"/><g clip-path="url(#clip_frame53_group)"><path d="M-6 0v24h24V0H-6zm8 17c-2.8 0-5-2.2-5-5s2.2-5 5-5 5 2.2 5 5-2.2 5-5 5z" fill="#FFF"/></g></g><g transform="translate(1296)"><defs><clipPath id="clip_frame54_group"><path d="M12 7c-1.326 0-2.598.527-3.536 1.464C7.527 9.402 7 10.674 7 12s.527 2.598 1.464 3.536C9.402 16.473 10.674 17 12 17s2.598-.527 3.536-1.464C16.473 14.598 17 13.326 17 12s-.527-2.598-1.464-3.536C14.598 7.527 13.326 7 12 7z" clip-path="url(#clip_frame54_group_1)"/></clipPath><clipPath id="clip_frame54_group_1"><path d="M0 0v24h24V0H0zm8.099 16.951c-2.773 0-4.951-2.178-4.951-4.951 0-2.773 2.178-4.951 4.951-4.951 2.773 0 4.95 2.178 4.95 4.951 0 2.773-2.177 4.951-4.95 4.951z"/></clipPath></defs><path d="M15.60823 19.865792l4.696453-.182548-.182548-4.696453 3.169339-3.425682-3.425682-3.169338-.182548-4.696454-4.696453.182548L11.561109.708526 8.39177 4.134208l-4.696454.182548.182548 4.696453-3.169339 3.425682 3.425682 3.169338.182548 4.696454 4.696453-.182548 3.425682 3.169339 3.169338-3.425682zm-5.873304-1.77322l-3.49736.13594-.135939-3.497359-2.595213-2.401014 2.401014-2.595213-.13594-3.49736 3.497359-.135939 2.401014-2.595213 2.595213 2.401014 3.49736-.13594.135939 3.497359 2.595213 2.401014-2.401014 2.595213.13594 3.49736-3.497359.135939-2.401014 2.595213-2.595213-2.401014z" fill="#FFF"/><g clip-path="url(#clip_frame54_group)"><path d="M-6 0v24h24V0H-6zm8 17c-2.8 0-5-2.2-5-5s2.2-5 5-5 5 2.2 5 5-2.2 5-5 5z" fill="#FFF"/></g></g><g transform="translate(1320)"><defs><clipPath id="clip_frame55_group"><path d="M12 7c-1.326 0-2.598.527-3.536 1.464C7.527 9.402 7 10.674 7 12s.527 2.598 1.464 3.536C9.402 16.473 10.674 17 12 17s2.598-.527 3.536-1.464C16.473 14.598 17 13.326 17 12s-.527-2.598-1.464-3.536C14.598 7.527 13.326 7 12 7z" clip-path="url(#clip_frame55_group_1)"/></clipPath><clipPath id="clip_frame55_group_1"><path d="M0 0v24h24V0H0zm8.067 16.967C5.285 16.967 3.1 14.782 3.1 12c0-2.782 2.185-4.967 4.967-4.967 2.781 0 4.966 2.185 4.966 4.967 0 2.782-2.185 4.967-4.966 4.967z"/></clipPath></defs><path d="M15.50797 19.911014l4.698395-.122845-.122845-4.698394 3.21262-3.385126-3.385126-3.21262-.122845-4.698394-4.698394.122845L11.704649.70386 8.49203 4.088986l-4.698394.122845.122845 4.698394-3.21262 3.385126 3.385126 3.21262.122845 4.698394 4.698394-.122845 3.385126 3.21262 3.21262-3.385126zm-5.850293-1.84772l-3.498804.09148-.09148-3.498805-2.56449-2.433803 2.433804-2.564489-.09148-3.498804 3.498804-.09148 2.433803-2.56449 2.564489 2.433804 3.498804-.09148.09148 3.498804 2.56449 2.433803-2.433804 2.564489.09148 3.498804-3.498804.09148-2.433803 2.56449-2.564489-2.433804z" fill="#FFF"/><g clip-path="url(#clip_frame55_group)"><path d="M-6 0v24h24V0H-6zm8 17c-2.8 0-5-2.2-5-5s2.2-5 5-5 5 2.2 5 5-2.2 5-5 5z" fill="#FFF"/></g></g><g transform="translate(1344)"><defs><clipPath id="clip_frame56_group"><path d="M12 7c-1.326 0-2.598.527-3.536 1.464C7.527 9.402 7 10.674 7 12s.527 2.598 1.464 3.536C9.402 16.473 10.674 17 12 17s2.598-.527 3.536-1.464C16.473 14.598 17 13.326 17 12s-.527-2.598-1.464-3.536C14.598 7.527 13.326 7 12 7z" clip-path="url(#clip_frame56_group_1)"/></clipPath><clipPath id="clip_frame56_group_1"><path d="M0 0v24h24V0H0zm8.041 16.979c-2.788 0-4.979-2.19-4.979-4.979s2.191-4.979 4.979-4.979c2.789 0 4.98 2.19 4.98 4.979s-2.191 4.979-4.98 4.979z"/></clipPath></defs><path d="M15.42941 19.945386l4.69938-.076284-.076283-4.69938 3.246005-3.353127-3.353126-3.246004-.076284-4.699381-4.69938.076283L11.816594.701488 8.570591 4.054614l-4.699381.076284.076283 4.69938-3.246005 3.353127 3.353126 3.246004.076284 4.699381 4.69938-.076283 3.353127 3.246005 3.246004-3.353126zm-5.831698-1.9056l-3.499539.056807-.056806-3.49954L3.50112 12.13796l2.459094-2.540247-.056807-3.499539 3.49954-.056806L11.86204 3.50112l2.540247 2.459094 3.499539-.056807.056806 3.49954 2.540247 2.459094-2.459094 2.540247.056807 3.499539-3.49954.056806-2.459094 2.540247-2.540247-2.459094z" fill="#FFF"/><g clip-path="url(#clip_frame56_group)"><path d="M-6 0v24h24V0H-6zm8 17c-2.8 0-5-2.2-5-5s2.2-5 5-5 5 2.2 5 5-2.2 5-5 5z" fill="#FFF"/></g></g><g transform="translate(1368)"><defs><clipPath id="clip_frame57_group"><path d="M12 7c-1.326 0-2.598.527-3.536 1.464C7.527 9.402 7 10.674 7 12s.527 2.598 1.464 3.536C9.402 16.473 10.674 17 12 17s2.598-.527 3.536-1.464C16.473 14.598 17 13.326 17 12s-.527-2.598-1.464-3.536C14.598 7.527 13.326 7 12 7z" clip-path="url(#clip_frame57_group_1)"/></clipPath><clipPath id="clip_frame57_group_1"><path d="M0 0v24h24V0H0zm8.023 16.989c-2.794 0-4.989-2.195-4.989-4.989s2.195-4.989 4.989-4.989c2.793 0 4.988 2.195 4.988 4.989s-2.195 4.989-4.988 4.989z"/></clipPath></defs><path d="M15.37082 19.970419l4.699815-.041683-.041683-4.699815 3.270604-3.329137-3.329137-3.270604-.041683-4.699815-4.699815.041683L11.899784.700444 8.62918 4.029581l-4.699815.041683.041683 4.699815-3.270604 3.329137 3.329137 3.270604.041683 4.699815 4.699815-.041683 3.329137 3.270604 3.270604-3.329137zm-5.81751-1.948483l-3.499862.03104-.03104-3.499862-2.522074-2.47773 2.47773-2.522073-.03104-3.499863 3.499862-.03104 2.47773-2.522074 2.522073 2.47773 3.499863-.03104.03104 3.499862 2.522074 2.47773-2.47773 2.522073.03104 3.499863-3.499862.03104-2.47773 2.522074-2.522073-2.47773z" fill="#FFF"/><g clip-path="url(#clip_frame57_group)"><path d="M-6 0v24h24V0H-6zm8 17c-2.8 0-5-2.2-5-5s2.2-5 5-5 5 2.2 5 5-2.2 5-5 5z" fill="#FFF"/></g></g><g transform="translate(1392)"><defs><clipPath id="clip_frame58_group"><path d="M12 7c-1.326 0-2.598.527-3.536 1.464C7.527 9.402 7 10.674 7 12s.527 2.598 1.464 3.536C9.402 16.473 10.674 17 12 17s2.598-.527 3.536-1.464C16.473 14.598 17 13.326 17 12s-.527-2.598-1.464-3.536C14.598 7.527 13.326 7 12 7z" clip-path="url(#clip_frame58_group_1)"/></clipPath><clipPath id="clip_frame58_group_1"><path d="M0 0v24h24V0H0zm8.01 16.995c-2.798 0-4.995-2.198-4.995-4.995S5.212 7.005 8.01 7.005c2.797 0 4.995 2.198 4.995 4.995s-2.198 4.995-4.995 4.995z"/></clipPath></defs><path d="M15.330641 19.987292l4.699966-.018016-.018016-4.699966 3.287326-3.312625-3.312625-3.287326-.018016-4.699966-4.699966.018016L11.956685.700083 8.669359 4.012708l-4.699966.018016.018016 4.699966-3.287326 3.312625 3.312625 3.287326.018016 4.699966 4.699966-.018016 3.312625 3.287326 3.287326-3.312625zm-5.807623-1.977753l-3.499975.013416-.013416-3.499974-2.509565-2.490399 2.4904-2.509564-.013417-3.499975 3.499974-.013416 2.490399-2.509565 2.509564 2.4904 3.499975-.013417.013416 3.499974 2.509565 2.490399-2.4904 2.509564.013417 3.499975-3.499974.013416-2.490399 2.509565-2.509564-2.4904z" fill="#FFF"/><g clip-path="url(#clip_frame58_group)"><path d="M-6 0v24h24V0H-6zm8 17c-2.8 0-5-2.2-5-5s2.2-5 5-5 5 2.2 5 5-2.2 5-5 5z" fill="#FFF"/></g></g><g transform="translate(1416)"><defs><clipPath id="clip_frame59_group"><path d="M12 7c-1.326 0-2.598.527-3.536 1.464C7.527 9.402 7 10.674 7 12s.527 2.598 1.464 3.536C9.402 16.473 10.674 17 12 17s2.598-.527 3.536-1.464C16.473 14.598 17 13.326 17 12s-.527-2.598-1.464-3.536C14.598 7.527 13.326 7 12 7z" clip-path="url(#clip_frame59_group_1)"/></clipPath><clipPath id="clip_frame59_group_1"><path d="M0 0v24h24V0H0zm8.002 16.999c-2.799 0-4.998-2.2-4.998-4.999 0-2.799 2.199-4.999 4.998-4.999 2.8 0 4.999 2.2 4.999 4.999 0 2.799-2.199 4.999-4.999 4.999z"/></clipPath></defs><path d="M15.307462 19.996918l4.699998-.004385-.004385-4.699998 3.29692-3.303077-3.303077-3.29692-.004385-4.699998-4.699998.004385-3.303077-3.29692-3.29692 3.303077-4.699998.004385.004385 4.699998-3.29692 3.303077 3.303077 3.29692.004385 4.699998 4.699998-.004385 3.303077 3.29692 3.29692-3.303077zM9.505598 18.00233l-3.499998.003265-.003265-3.499999-2.502331-2.497666L5.99767 9.505598 5.994405 6.0056l3.499999-.003265 2.497666-2.502331 2.502332 2.497666 3.499998-.003265.003265 3.499999 2.502331 2.497666-2.497666 2.502332.003265 3.499998-3.499999.003265-2.497666 2.502331-2.502332-2.497666z" fill="#FFF"/><g clip-path="url(#clip_frame59_group)"><path d="M-6 0v24h24V0H-6zm8 17c-2.8 0-5-2.2-5-5s2.2-5 5-5 5 2.2 5 5-2.2 5-5 5z" fill="#FFF"/></g></g><g transform="translate(1440)"><defs><clipPath id="clip_frame60_group"><path d="M12 7c-1.326 0-2.598.527-3.536 1.464C7.527 9.402 7 10.674 7 12s.527 2.598 1.464 3.536C9.402 16.473 10.674 17 12 17s2.598-.527 3.536-1.464C16.473 14.598 17 13.326 17 12s-.527-2.598-1.464-3.536C14.598 7.527 13.326 7 12 7z" clip-path="url(#clip_frame60_group_1)"/></clipPath><clipPath id="clip_frame60_group_1"><path d="M0 0v24h24V0H0zm8 17c-2.8 0-5-2.2-5-5s2.2-5 5-5 5 2.2 5 5-2.2 5-5 5z"/></clipPath></defs><path d="M15.3 20H20v-4.7l3.3-3.3L20 8.7V4h-4.7L12 .7 8.7 4H4v4.7L.7 12 4 15.3V20h4.7l3.3 3.3 3.3-3.3zm-5.8-2H6v-3.5L3.5 12 6 9.5V6h3.5L12 3.5 14.5 6H18v3.5l2.5 2.5-2.5 2.5V18h-3.5L12 20.5 9.5 18z" fill="#FFF"/><g clip-path="url(#clip_frame60_group)"><path d="M-6 0v24h24V0H-6zm8 17c-2.8 0-5-2.2-5-5s2.2-5 5-5 5 2.2 5 5-2.2 5-5 5z" fill="#FFF"/></g></g></svg>